<?xml version="1.0" encoding="utf-8"?>
<!-- Generator: Adobe Illustrator 26.0.1, SVG Export Plug-In . SVG Version: 6.00 Build 0)  -->
<svg version="1.1" id="layer" xmlns="http://www.w3.org/2000/svg" xmlns:xlink="http://www.w3.org/1999/xlink" x="0px" y="0px"
	 viewBox="0 0 256 256" style="enable-background:new 0 0 256 256;" xml:space="preserve">
<style type="text/css">
	.st0{fill:none;stroke:#FFFFFF;stroke-width:10;stroke-miterlimit:10;}
	.st1{fill:#FFFFFF;}
</style>
<path class="st0" d="M230.3,243.3H25.7c-7.2,0-13-5.8-13-13V25.7c0-7.2,5.8-13,13-13h204.7c7.2,0,13,5.8,13,13v204.7
	C243.3,237.5,237.5,243.3,230.3,243.3z"/>
<path class="st1" d="M43.9,43.4c0,4.2,3.4,7.6,7.6,7.6s7.6-3.4,7.6-7.6s-3.4-7.6-7.6-7.6S43.9,39.2,43.9,43.4z"/>
<path class="st1" d="M69.2,62.8v34.1c0,1.8-1.4,3.2-3.2,3.2h0c-1.8,0-3.2-1.4-3.2-3.2V65.6c0-0.3-0.3-0.6-0.6-0.6h0
	c-0.3,0-0.6,0.3-0.6,0.6v77.2c0,2.5-2,4.5-4.5,4.5c-1.2,0-2.4-0.5-3.2-1.3c-0.8-0.8-1.3-1.9-1.3-3.2V97.6c0-0.7-0.5-1.2-1.2-1.2
	c-0.7,0-1.2,0.5-1.2,1.2v45.2c0,2.5-2,4.5-4.5,4.5c-1.2,0-2.4-0.5-3.2-1.3c-0.8-0.8-1.3-1.9-1.3-3.2V65.6c0-0.3-0.3-0.6-0.6-0.6
	s-0.6,0.3-0.6,0.6v31.2c0,1.8-1.4,3.2-3.2,3.2c-0.9,0-1.7-0.4-2.3-0.9c-0.6-0.6-0.9-1.4-0.9-2.3V62.8c0-5.5,4.4-9.9,9.9-9.9h15.7
	C64.8,52.9,69.2,57.3,69.2,62.8z"/>
<path class="st1" d="M126.7,43.4c0,4.2-3.4,7.6-7.6,7.6c-4.2,0-7.6-3.4-7.6-7.6s3.4-7.6,7.6-7.6S126.7,39.2,126.7,43.4z
	 M138.4,112.8h-8.8c-0.2,0-0.4,0.2-0.4,0.4v29.7c0,2.5-2,4.5-4.5,4.5c-1.2,0-2.4-0.5-3.2-1.3c-0.8-0.8-1.3-1.9-1.3-3.2V114
	c0-0.7-0.5-1.2-1.2-1.2s-1.2,0.5-1.2,1.2v28.9c0,2.5-2,4.5-4.5,4.5c-1.2,0-2.4-0.5-3.2-1.3c-0.8-0.8-1.3-1.9-1.3-3.2v-29.7
	c0-0.2-0.2-0.4-0.4-0.4h-8.8c-0.8,0-1.4-0.8-1.1-1.6l11.8-28.4c0.2-0.5,0.3-1,0.3-1.6V65.6c0-0.3-0.3-0.6-0.6-0.6
	c-0.3,0-0.6,0.3-0.6,0.6v15.3c0,0.4-0.1,0.8-0.2,1.2l-3.1,7.4l-1.4,3.4c-0.7,1.6-2.6,2.4-4.2,1.7c-1.2-0.5-2-1.7-2-3
	c0-0.4,0.1-0.8,0.2-1.2l4-9.6c0.2-0.4,0.2-0.8,0.2-1.2V62.8c0-5.5,4.4-9.9,9.9-9.9h0.6c1.4,1.4,3.3,2.3,5.4,2.3s4-0.9,5.4-2.3h0.6
	c5.5,0,9.9,4.4,9.9,9.9v16.9c0,0.4,0.1,0.8,0.2,1.2l4,9.6c0.7,1.6-0.1,3.5-1.8,4.2c-0.2,0.1-0.4,0.1-0.6,0.2c-1.5,0.3-3-0.6-3.6-2
	l-1.3-3l-3.2-7.7c-0.2-0.4-0.2-0.8-0.2-1.2V65.6c0-0.3-0.2-0.5-0.4-0.6c0,0-0.1,0-0.1,0c0,0-0.1,0-0.1,0c-0.3,0.1-0.5,0.3-0.5,0.6
	v15.6c0,0.5,0.1,1.1,0.3,1.6l11.8,28.4C139.8,112,139.2,112.8,138.4,112.8L138.4,112.8z"/>
<path class="st1" d="M82.2,34.4h6.1v113h-6.1V34.4z"/>
<path class="st1" d="M186.2,120c5.9,1,9.9,6.6,8.9,12.5l-5.5,32.7l-1.5,9.2c-0.6,3.8-3.9,6.6-7.7,6.6h-38.9c-1.2,0-2.2,0.7-2.6,1.8
	L126,217.3c-1.4,3.8-5.6,5.7-9.4,4.3c-3.8-1.4-5.7-5.6-4.3-9.4L124,181l3.3-9c1.5-4.1,5.4-6.7,9.7-6.7h28.6c1.2,0,2.2-0.8,2.4-2
	l1.5-8.9c0.1-0.7-0.4-1.4-1.2-1.4h-19.7c-2.7,0-4.8-2.2-4.8-4.8c0-2.7,2.2-4.8,4.8-4.8h20.9c1,0,1.9-0.7,2.1-1.8l2.1-12.5
	C174.7,123,180.3,119,186.2,120L186.2,120z M189.4,106.7c0,5-4.1,9.1-9.1,9.1c-5,0-9.1-4.1-9.1-9.1s4.1-9.1,9.1-9.1
	C185.3,97.6,189.4,101.7,189.4,106.7z"/>
<path class="st1" d="M222.2,183.4c-0.4,21.8-18.5,39.4-40.3,39.3c-21.4-0.1-38.8-16.9-39.9-38c0-0.2,0.2-0.4,0.4-0.4h7.6
	c0.2,0,0.4,0.2,0.4,0.4c1.1,16.7,15.2,29.9,32.3,29.6c16.6-0.3,30.3-13.6,31.1-30.1c0.6-13.5-7.1-25.2-18.5-30.4
	c-0.2-0.1-0.3-0.3-0.2-0.4l1.3-7.7c0-0.3,0.3-0.4,0.6-0.3C211.9,151.2,222.5,166.1,222.2,183.4L222.2,183.4z"/>
</svg>
