<?xml version="1.0" encoding="utf-8"?>
<!-- Generator: Adobe Illustrator 26.0.1, SVG Export Plug-In . SVG Version: 6.00 Build 0)  -->
<svg version="1.1" id="layer" xmlns="http://www.w3.org/2000/svg" xmlns:xlink="http://www.w3.org/1999/xlink" x="0px" y="0px"
	 viewBox="0 0 256 256" style="enable-background:new 0 0 256 256;" xml:space="preserve">
<style type="text/css">
	.st0{fill:none;stroke:#FFFFFF;stroke-width:10;stroke-miterlimit:10;}
	.st1{fill:#FFFFFF;}
</style>
<path class="st0" d="M230.3,243.3H25.7c-7.2,0-13-5.8-13-13V25.7c0-7.2,5.8-13,13-13h204.7c7.2,0,13,5.8,13,13v204.7
	C243.3,237.5,237.5,243.3,230.3,243.3z"/>
<g>
	<path class="st1" d="M222.1,222.1h-23.2V33.9h23.2V222.1z M57.1,222.1H33.9V33.9h23.2C57.1,33.9,57.1,222.1,57.1,222.1z M70,78.2
		v99.5c0,6,4.8,10.8,10.8,10.8h94.4c6,0,10.8-4.8,10.8-10.8V78.2c0-6-4.8-10.8-10.8-10.8H80.8C74.8,67.4,70,72.3,70,78.2z
		 M78.7,80.9c0-2.6,2.1-4.7,4.7-4.7h89.2c2.6,0,4.7,2.1,4.7,4.7v94.3c0,2.6-2.1,4.7-4.7,4.7H83.4c-2.6,0-4.7-2.1-4.7-4.7
		C78.7,175.1,78.7,80.9,78.7,80.9z"/>
	<path class="st1" d="M89,91.8c0,2.7,2.2,4.9,4.9,4.9c2.7,0,4.9-2.2,4.9-4.9s-2.2-4.9-4.9-4.9S89,89.1,89,91.8z M89,105.3
		c0,2.7,2.2,4.9,4.9,4.9c2.7,0,4.9-2.2,4.9-4.9s-2.2-4.9-4.9-4.9S89,102.6,89,105.3z M89,118.8c0,2.7,2.2,4.9,4.9,4.9
		c2.7,0,4.9-2.2,4.9-4.9s-2.2-4.9-4.9-4.9S89,116.1,89,118.8z M114,44.2v13l9.7-10.3l0.1,15h8.6l-0.1-15l9.7,10.4v-13l-14-15
		L114,44.2z M114,211.8v-13l9.7,10.3l0.1-15h8.6l-0.1,15l9.7-10.4v13l-14,15L114,211.8z M140.7,102.3c3.9,0.7,6.6,4.4,5.9,8.3
		l-3.6,21.7l-1,6.1c-0.4,2.5-2.6,4.4-5.1,4.4H111c-0.8,0-1.5,0.5-1.7,1.2l-8.5,22.9c-0.9,2.5-3.7,3.8-6.2,2.8
		c-2.5-0.9-3.8-3.7-2.8-6.2l7.7-20.7l2.2-6c1-2.7,3.6-4.5,6.4-4.5h19c0.8,0,1.4-0.6,1.6-1.3l1-5.9c0.1-0.4-0.2-0.8-0.6-0.9H129h-13
		c-1.8,0-3.2-1.4-3.2-3.2c0-1.8,1.4-3.2,3.2-3.2h13.9c0.7,0,1.3-0.5,1.4-1.2l1.4-8.3C133.1,104.3,136.8,101.7,140.7,102.3z"/>
	<path class="st1" d="M130.7,93.5c0,3.3,2.7,6,6,6s6-2.7,6-6l0,0c0-3.3-2.7-6-6-6S130.7,90.2,130.7,93.5z"/>
	<path class="st1" d="M164.6,144.4c-0.3,14.4-12.3,26.1-26.7,26.1c-14.2-0.1-25.7-11.2-26.5-25.2c0-0.2,0.1-0.3,0.3-0.3h5
		c0.1,0,0.3,0.1,0.3,0.3c0.7,11.1,10.1,19.9,21.4,19.6c11-0.2,20.1-9,20.6-20c0.4-8.9-4.7-16.7-12.3-20.2c-0.1-0.1-0.2-0.2-0.2-0.3
		l0.9-5.1c0-0.2,0.2-0.3,0.4-0.2C157.8,123,164.8,132.9,164.6,144.4L164.6,144.4z"/>
</g>
</svg>
