<?xml version="1.0" encoding="utf-8"?>
<!-- Generator: Adobe Illustrator 26.0.1, SVG Export Plug-In . SVG Version: 6.00 Build 0)  -->
<svg version="1.1" id="layer" xmlns="http://www.w3.org/2000/svg" xmlns:xlink="http://www.w3.org/1999/xlink" x="0px" y="0px"
	 viewBox="0 0 256 256" style="enable-background:new 0 0 256 256;" xml:space="preserve">
<style type="text/css">
	.st0{fill:none;stroke:#FFFFFF;stroke-width:10;stroke-miterlimit:10;}
	.st1{fill:#FFFFFF;}
</style>
<path class="st0" d="M230.3,243.3H25.7c-7.2,0-13-5.8-13-13V25.7c0-7.2,5.8-13,13-13h204.7c7.2,0,13,5.8,13,13v204.7
	C243.3,237.5,237.5,243.3,230.3,243.3z"/>
<g>
	<path class="st1" d="M94.9,150.4l-2.4-14.4l-8.6-51.6c-1.6-9.3,4.7-18.1,14-19.6c9.3-1.6,18.1,4.7,19.6,14l3.3,19.7
		c0.3,1.6,1.7,2.8,3.3,2.8h32.9c4.2,0,7.6,3.4,7.6,7.6c0,4.2-3.4,7.6-7.6,7.6h-31c-1.1,0-2,1-1.8,2.2l2.4,14.1
		c0.3,1.8,1.9,3.2,3.7,3.2h45.1c6.8,0,12.9,4.2,15.3,10.6l5.3,14.1l18.3,49.2c2.2,5.9-0.8,12.6-6.8,14.8c-5.9,2.2-12.6-0.8-14.8-6.8
		l-20.2-54.3c-0.6-1.7-2.3-2.9-4.1-2.9h-61.2C101,160.7,95.9,156.3,94.9,150.4z"/>
	<circle class="st1" cx="107.1" cy="43.8" r="14.3"/>
	<path class="st1" d="M81.1,104.5c0.4-0.2,0.8,0.1,0.9,0.5l2,12.1c0,0.3-0.1,0.6-0.4,0.7c-18,8.2-30.2,26.7-29.2,48
		c1.3,26.1,22.8,47,48.9,47.5c26.9,0.5,49.1-20.3,50.8-46.7c0-0.3,0.3-0.6,0.7-0.6h12c0.4,0,0.7,0.3,0.7,0.7
		c-1.7,33.3-29.2,59.7-62.9,59.9c-34.3,0.1-62.8-27.6-63.5-61.9C40.6,137.4,57.3,113.9,81.1,104.5z"/>
</g>
</svg>
