<?xml version="1.0" encoding="utf-8"?>
<!-- Generator: Adobe Illustrator 26.0.1, SVG Export Plug-In . SVG Version: 6.00 Build 0)  -->
<svg version="1.1" id="layer" xmlns="http://www.w3.org/2000/svg" xmlns:xlink="http://www.w3.org/1999/xlink" x="0px" y="0px"
	 viewBox="0 0 256 256" style="enable-background:new 0 0 256 256;" xml:space="preserve">
<style type="text/css">
	.st0{fill:none;stroke:#FFFFFF;stroke-width:10;stroke-miterlimit:10;}
	.st1{fill:#FFFFFF;}
</style>
<path class="st0" d="M230.3,243.3H25.7c-7.2,0-13-5.8-13-13V25.7c0-7.2,5.8-13,13-13h204.7c7.2,0,13,5.8,13,13v204.7
	C243.3,237.5,237.5,243.3,230.3,243.3z"/>
<path class="st1" d="M43.8,131v16.8h12v9.2H34V121h119.5v35.2h-21.7v-8.3h12.3v-16L43.8,131L43.8,131z"/>
<path class="st1" d="M55.9,157h-22v-36h119.6v35.3h-21.8v-8.5H144v-15.9l-100.2-0.9v16.7h12V157z M34,156.9h21.8v-9.1h-12v-16.9h0.1
	l100.4,0.9v16.1h-12.3v8.3h21.6v-35.1H34V156.9z"/>
<path class="st1" d="M58.8,136h6.5v80.4h58.5V136h6.6v86.1H58.8V136z"/>
<path class="st1" d="M73,196.6c0,2.3,1.9,4.2,4.1,4.2c2.3,0,4.1-1.9,4.1-4.2c0,0,0,0,0,0c0-2.3-1.9-4.2-4.1-4.2
	C74.8,192.4,73,194.3,73,196.6C73,196.6,73,196.6,73,196.6z"/>
<path class="st1" d="M77.1,200.8c-2.3,0-4.2-1.9-4.2-4.2c0-2.3,1.9-4.2,4.2-4.2c2.3,0,4.2,1.9,4.2,4.2l0,0
	C81.3,198.9,79.4,200.8,77.1,200.8z M77.1,192.4c-2.3,0-4.1,1.8-4.1,4.1c0,2.3,1.8,4.1,4.1,4.1c2.3,0,4.1-1.8,4.1-4.1
	C81.2,194.3,79.4,192.4,77.1,192.4z"/>
<path class="st1" d="M84.7,196.6c0,2.3,1.9,4.2,4.1,4.2c2.3,0,4.1-1.9,4.1-4.2c0,0,0,0,0,0c0-2.3-1.9-4.2-4.1-4.2
	C86.6,192.4,84.7,194.3,84.7,196.6C84.7,196.6,84.7,196.6,84.7,196.6z"/>
<path class="st1" d="M88.9,200.8c-2.3,0-4.2-1.9-4.2-4.2c0-2.3,1.9-4.2,4.2-4.2c2.3,0,4.2,1.9,4.2,4.2l0,0
	C93,198.9,91.2,200.8,88.9,200.8z M88.9,192.4c-2.3,0-4.1,1.8-4.1,4.1c0,2.3,1.8,4.1,4.1,4.1c2.3,0,4.1-1.8,4.1-4.1
	C92.9,194.3,91.1,192.4,88.9,192.4z"/>
<path class="st1" d="M96.4,196.6c0,2.3,1.9,4.2,4.1,4.2c2.3,0,4.1-1.9,4.1-4.2c0,0,0,0,0,0c0-2.3-1.9-4.2-4.1-4.2
	C98.3,192.4,96.4,194.3,96.4,196.6C96.4,196.6,96.4,196.6,96.4,196.6z"/>
<path class="st1" d="M100.6,200.8c-2.3,0-4.2-1.9-4.2-4.2c0-2.3,1.9-4.2,4.2-4.2c2.3,0,4.2,1.9,4.2,4.2l0,0
	C104.8,198.9,102.9,200.8,100.6,200.8z M100.6,192.4c-2.3,0-4.1,1.8-4.1,4.1c0,2.3,1.8,4.1,4.1,4.1c2.3,0,4.1-1.8,4.1-4.1
	C104.7,194.3,102.8,192.4,100.6,192.4z"/>
<path class="st1" d="M107.8,196.6c0,2.3,1.9,4.2,4.1,4.2c2.3,0,4.1-1.9,4.1-4.2c0,0,0,0,0,0c0-2.3-1.9-4.2-4.1-4.2
	C109.7,192.4,107.8,194.3,107.8,196.6C107.8,196.6,107.8,196.6,107.8,196.6z"/>
<path class="st1" d="M112,200.8c-2.3,0-4.2-1.9-4.2-4.2c0-2.3,1.9-4.2,4.2-4.2c2.3,0,4.2,1.9,4.2,4.2l0,0
	C116.2,198.9,114.3,200.8,112,200.8z M112,192.4c-2.3,0-4.1,1.8-4.1,4.1c0,2.3,1.8,4.1,4.1,4.1s4.1-1.8,4.1-4.1
	C116.1,194.3,114.2,192.4,112,192.4z M113.7,53.3l6.6-6.6l5.2,5.2l6.7-6.8l-11.9-12L99.7,53.8l97.7,98.4l20.7-20.9l-10.8-10.8
	l-6.6,6.6l4.8,4.7l-7.3,7.3L113.7,53.3L113.7,53.3z"/>
<path class="st1" d="M197.4,152.3L197.4,152.3L99.6,53.8l0,0L120.3,33l0,0l11.9,12l0,0l-6.8,6.8l0,0l-5.1-5.2l-6.5,6.5l84.5,85.9
	l7.2-7.2l-4.8-4.7l0,0l6.6-6.7l10.8,10.9l0,0L197.4,152.3z M99.8,53.8l97.6,98.4l20.7-20.8l-10.7-10.8l-6.5,6.6l4.8,4.7l0,0
	l-7.3,7.3l0,0l-84.6-85.9l6.6-6.7l0,0l5.1,5.2l6.7-6.7l-11.8-11.9L99.8,53.8z"/>
<path class="st1" d="M171.2,29.3c-21.7,0-40.9,13.8-48.1,34.4l64.8,65.3c26.5-9.3,40.6-38.5,31.3-65.3
	C212.1,43.1,192.9,29.3,171.2,29.3L171.2,29.3z M195.9,45L179.4,70h13v5.5h-15.3v7.7h15.3v5.6h-15.3v11.1h-8.3V88.8h-15.8v-5.6h15.8
	v-7.7h-15.8V70h13.3l-16.2-25.1h9.5L171,64.5c0.6,1.1,1.3,2.5,2.1,4.1h0.2c0.6-1.5,1.4-2.9,2.2-4.3L187,45H195.9z"/>
</svg>
