<?xml version="1.0" encoding="utf-8"?>
<!-- Generator: Adobe Illustrator 26.0.1, SVG Export Plug-In . SVG Version: 6.00 Build 0)  -->
<svg version="1.1" id="layer" xmlns="http://www.w3.org/2000/svg" xmlns:xlink="http://www.w3.org/1999/xlink" x="0px" y="0px"
	 viewBox="0 0 256 256" style="enable-background:new 0 0 256 256;" xml:space="preserve">
<style type="text/css">
	.st0{fill:none;stroke:#FFFFFF;stroke-width:10;stroke-miterlimit:10;}
	.st1{fill:#FFFFFF;}
</style>
<path class="st0" d="M230.3,243.3H25.7c-7.2,0-13-5.8-13-13V25.7c0-7.2,5.8-13,13-13h204.7c7.2,0,13,5.8,13,13v204.7
	C243.3,237.5,237.5,243.3,230.3,243.3z"/>
<path class="st1" d="M165,114.2c13,0.2,23.7-10.2,23.9-23.2s-10.2-23.7-23.2-23.9c-13-0.2-23.7,10.2-23.9,23.2c0,0.1,0,0.3,0,0.4
	C141.8,103.6,152.2,114.1,165,114.2L165,114.2z M165,162.2h-21.9c-1.4,0-2.6-1.2-2.6-2.6l0,0v-15.3l-18.7,19.1
	c-8.4,8.6-19.9-2.4-11.4-11l30.9-31.5c2.5-2.7,6-4.2,9.6-4.1h27.8c3.7-0.1,7.3,1.4,9.8,4.1l31.2,31.9c3.4,2.8,3.9,7.8,1,11.2
	c-2.8,3.4-7.8,3.9-11.2,1c-0.5-0.4-0.9-0.8-1.2-1.3l-19.2-19.5v15.6c0,1.4-1.2,2.6-2.6,2.6l0,0L165,162.2z M142.4,169.5l10.4,11.6
	c0.9,1,0.9,2.5,0,3.5l-7.3,7.8c-0.9,1-0.9,2.6,0,3.6l13.8,14.2c3.7,4,3.7,10.2,0,14.2c-4,4.1-10.6,4.1-14.7,0.1l-0.1-0.1l-18.6-20.6
	c-5.1-5.4-5.5-13.8-0.9-19.7l13.7-14.6c1-1,2.6-1.1,3.7-0.1C142.4,169.5,142.4,169.5,142.4,169.5L142.4,169.5z M191.1,169.5
	l13.8,14.5c4.5,5.9,4.1,14.3-1,19.7L185,224.2c-4,4.1-10.6,4.1-14.7,0.1c0,0,0,0-0.1-0.1c-3.7-4-3.7-10.2,0-14.2l13.8-14.2
	c0.9-1,0.9-2.6,0-3.6l-7.3-7.8c-0.9-1-0.9-2.5,0-3.5l10.4-11.6c1-1,2.6-1.1,3.7-0.1C190.9,169.3,191,169.4,191.1,169.5L191.1,169.5z
	 M76.9,75.1c2.9,0,5.2,2.3,5.2,5.2l0,0v72.9c0,2.9-2.3,5.2-5.2,5.2H45.7c-2.9,0-5.2-2.3-5.2-5.2V80.3c0-2.9,2.3-5.2,5.2-5.2l0,0
	L76.9,75.1 M76.9,69.9H45.7c-5.7,0-10.4,4.7-10.4,10.4v72.9c0,5.7,4.7,10.4,10.4,10.4l0,0h31.2c5.7,0,10.4-4.7,10.4-10.4l0,0V80.3
	C87.3,74.5,82.7,69.9,76.9,69.9z M79.6,49.1h-5.2c-1.4,0-2.6-1.2-2.6-2.6v-7c0.1-5.2-3.5-9.8-8.6-10.8c-5.7-1-11.1,2.8-12.1,8.4
	c-0.1,0.5-0.1,1.1-0.2,1.6v7.8c0,1.4-1.2,2.6-2.6,2.6l0,0h-5.2c-4.3,0-7.8,3.5-7.8,7.8s3.5,7.8,7.8,7.8h36.4c4.3,0,7.8-3.5,7.8-7.8
	S83.8,49.1,79.6,49.1L79.6,49.1z"/>
<path class="st1" d="M59.8,93.4H39c-1.4,0-2.6-1.2-2.6-2.6s1.2-2.6,2.6-2.6h20.8c1.4,0,2.6,1.2,2.6,2.6
	C62.4,92.3,61.3,93.4,59.8,93.4z M59.8,110.8H39c-1.4,0-2.6-1.2-2.6-2.6s1.2-2.6,2.6-2.6h20.8c1.4,0,2.6,1.2,2.6,2.6
	C62.4,109.6,61.3,110.8,59.8,110.8z M59.8,128.1H39c-1.4,0-2.6-1.2-2.6-2.6s1.2-2.6,2.6-2.6h20.8c1.4,0,2.6,1.2,2.6,2.6
	S61.3,128.1,59.8,128.1z M59.8,145.5H39c-1.4,0-2.6-1.2-2.6-2.6l0,0c0-1.4,1.2-2.6,2.6-2.6l0,0h20.8c1.4,0,2.6,1.2,2.6,2.6l0,0
	C62.4,144.3,61.3,145.5,59.8,145.5L59.8,145.5z"/>
</svg>
