<?xml version="1.0" standalone="no"?><!DOCTYPE svg PUBLIC "-//W3C//DTD SVG 1.1//EN" "http://www.w3.org/Graphics/SVG/1.1/DTD/svg11.dtd"><svg t="1716563140982" class="icon" viewBox="0 0 2425 1024" version="1.1" xmlns="http://www.w3.org/2000/svg" p-id="5238" xmlns:xlink="http://www.w3.org/1999/xlink" width="473.6328125" height="200"><path d="M1015.376842 489.633684c-34.277053 21.816589-69.103832 45.627284-98.131537 67.745684-3.352253 2.554611-6.682947 5.109221-9.916631 7.599158 2.263579-2.414484 4.279242-5.130779 6.100884-8.170442 22.032168-36.605305 16.114526-118.913347-40.334821-118.913347H538.947368l-88.387368 339.536842H700.631579c-28.240842 42.3936-45.519495 79.893558-54.110316 109.298526l-1.32581 4.548716-4.699621-0.732968c-110.969263-17.429558-249.920674-42.609179-361.633685-82.760758-55.845726-20.059621-104.933053-43.848758-140.417347-72.650106-35.495074-28.790568-57.570358-63.121516-57.602695-103.2192-0.043116-56.395453 50.025095-106.000168 146.065516-160.272168 107.401432-60.707032 238.441095-105.450442 424.5504-154.354526 408.694568-107.401432 926.342737-165.187368 1644.263747-165.036463H2295.915789v10.778947c-548.432842 14.411453-890.136253 116.919242-1193.229473 274.863158h117.533642l32.25061 209.036126L1392.64 437.894737H1606.063158l-86.231579 339.536842h-118.568421l66.829474-258.694737H1455.157895l-172.463158 258.694737h-99.166316l-37.726316-258.694737H1131.789474l-64.673685 258.694737H945.313684zM614.4 626.526316l-26.947368 102.4H700.631579c68.715789 0 107.056505-102.4 32.336842-102.4z m129.347368-53.894737c60.685474 0 70.903916-86.231579 32.336843-86.231579H651.048421l-22.635789 86.231579z m1099.452632-91.621053h-177.852632s10.002863-43.115789 26.947369-43.115789h479.663158s-10.002863 43.115789-26.947369 43.115789h-177.852631l-80.842106 296.421053h-123.957894z" fill="#FAA518" p-id="5239"></path></svg>