<?xml version="1.0" encoding="utf-8"?>
<!-- Generator: Adobe Illustrator 28.0.0, SVG Export Plug-In . SVG Version: 6.00 Build 0)  -->
<svg version="1.1" id="layer" xmlns="http://www.w3.org/2000/svg" xmlns:xlink="http://www.w3.org/1999/xlink" x="0px" y="0px"
	 viewBox="0 0 256 256" style="enable-background:new 0 0 256 256;" xml:space="preserve">
<style type="text/css">
	.st0{fill:none;stroke:#FFFFFF;stroke-width:10;stroke-miterlimit:10;}
	.st1{fill:#FFFFFF;}
</style>
<path class="st0" d="M230.3,243.3H25.7c-7.2,0-13-5.8-13-13V25.7c0-7.2,5.8-13,13-13h204.7c7.2,0,13,5.8,13,13v204.7
	C243.3,237.5,237.5,243.3,230.3,243.3z"/>
<g>
	<g>
		<circle class="st1" cx="92.9" cy="50.6" r="11.8"/>
		<path class="st1" d="M65.8,81.4v53.9c0,2.8,2.2,5.1,4.9,5.1l0,0c2.7,0,4.9-2.3,4.9-5.1V86c0-0.5,0.4-0.9,0.9-0.9l0,0
			c0.5,0,0.9,0.4,0.9,0.9v122.1c0,3.9,3.1,7.1,6.8,7.1c1.9,0,3.6-0.8,4.8-2.1s2-3.1,2-5v-71.5c0-1,0.8-1.9,1.8-1.9s1.8,0.8,1.8,1.9
			v71.5c0,3.9,3.1,7.1,6.8,7.1c1.9,0,3.6-0.8,4.8-2.1s2-3.1,2-5V86c0-0.5,0.4-0.9,0.9-0.9s0.9,0.4,0.9,0.9v49.4
			c0,2.8,2.2,5.1,4.9,5.1c1.4,0,2.6-0.6,3.5-1.5s1.4-2.2,1.4-3.6v-54c0-8.6-6.8-15.6-15.1-15.6h-24C72.6,65.8,65.8,72.8,65.8,81.4z"
			/>
	</g>
	<g>
		<ellipse class="st1" cx="175.8" cy="50.8" rx="11.8" ry="12"/>
		<path class="st1" d="M148.7,81.5v30.3h9.8V86c0-0.5,0.4-0.9,0.9-0.9s0.9,0.4,0.9,0.9v25.8h31V86c0-0.5,0.4-0.9,0.9-0.9
			s0.9,0.4,0.9,0.9v25.8h9.8V81.5c0-8.6-6.8-15.6-15.1-15.6h-24C155.4,65.8,148.7,72.8,148.7,81.5z"/>
	</g>
	<rect x="128" y="119.6" class="st1" width="93.9" height="12.6"/>
	<rect x="33.8" y="119.6" class="st1" width="24.1" height="12.6"/>
</g>
</svg>
