<?xml version="1.0" encoding="utf-8"?>
<!-- Generator: Adobe Illustrator 26.0.1, SVG Export Plug-In . SVG Version: 6.00 Build 0)  -->
<svg version="1.1" id="layer" xmlns="http://www.w3.org/2000/svg" xmlns:xlink="http://www.w3.org/1999/xlink" x="0px" y="0px"
	 viewBox="0 0 256 256" style="enable-background:new 0 0 256 256;" xml:space="preserve">
<style type="text/css">
	.st0{fill:none;stroke:#FFFFFF;stroke-width:10;stroke-miterlimit:10;}
	.st1{fill:#FFFFFF;}
</style>
<path class="st0" d="M230.3,243.3H25.7c-7.2,0-13-5.8-13-13V25.7c0-7.2,5.8-13,13-13h204.7c7.2,0,13,5.8,13,13v204.7
	C243.3,237.5,237.5,243.3,230.3,243.3z"/>
<path class="st1" d="M53.9,152.8h11.7c2.8,0,5.5-1.1,7.5-3.1l21.1-21.1V95.3c0-8.3,6.7-15.1,15.1-15.1c8.3,0,15.1,6.8,15.1,15.1v3.2
	l36.6-36.6c4.5-4.5,10.7-7.1,17-7.1h23.5c13.5,0,25.1,10.5,25.5,24c0.5,14.1-10.8,25.7-24.9,25.7h-11.3c-2.8,0-5.5,1.1-7.5,3.1
	l-79.7,79.7l-8.1,8.1c-4.5,4.5-10.7,7.1-17,7.1H54.6c-13.5,0-25.1-10.5-25.5-24C28.6,164.4,39.9,152.8,53.9,152.8L53.9,152.8z
	 M54.4,191.3h24c4,0,7.8-1.6,10.7-4.4l12.3-12.3l76.8-76.8c2.8-2.8,6.7-4.4,10.7-4.4h13.2c7.6,0,13.7-6.2,13.6-13.8
	c-0.1-7.5-6.6-13.3-14-13.3h-24c-4,0-7.8,1.6-10.7,4.4l-10.3,10.3l-32.4,32.4l-30.1,30.1l-16.4,16.4c-2.8,2.8-6.7,4.4-10.7,4.4H53.9
	c-7.6,0-13.7,6.2-13.6,13.8C40.5,185.4,46.9,191.3,54.4,191.3L54.4,191.3z M97.5,65.2c0,6.5,5.3,11.8,11.8,11.8S121,71.7,121,65.2
	s-5.3-11.8-11.8-11.8S97.5,58.7,97.5,65.2z"/>
</svg>
