<?xml version="1.0" encoding="utf-8"?>
<!-- Generator: Adobe Illustrator 26.0.1, SVG Export Plug-In . SVG Version: 6.00 Build 0)  -->
<svg version="1.1" id="图层_1" xmlns="http://www.w3.org/2000/svg" xmlns:xlink="http://www.w3.org/1999/xlink" x="0px" y="0px"
	 viewBox="0 0 200 200" style="enable-background:new 0 0 200 200;" xml:space="preserve">
<style type="text/css">
	.st0{fill:#00913A;}
	.st1{fill:#FFFFFF;}
</style>
<path class="st0" d="M0,0h200v200H0V0z"/>
<g>
	<g>
		<polygon class="st1" points="21.8,153.1 50,153.1 50,144.1 21.8,144.1 21.8,132.1 52.1,132.1 52.1,123 10.4,123 10.4,176.8 
			53.2,176.8 53.2,167.8 21.8,167.8 		"/>
		<polygon class="st1" points="111.6,123 98.5,123 87.4,140.3 76.1,123 62.9,123 80.3,148.8 61.1,176.8 74.7,176.8 87.2,158.2 
			99.7,176.8 113.4,176.8 94.1,149.2 		"/>
		<rect x="122.8" y="123" class="st1" width="11.4" height="53.8"/>
		<polygon class="st1" points="144.9,123 144.9,132.1 161.6,132.1 161.6,176.8 172.9,176.8 172.9,132.1 189.6,132.1 189.6,123 		"/>
	</g>
	<g>
		<polygon class="st1" points="83.1,28.1 83.1,47.7 64.4,47.7 64.4,23.2 43.5,23.2 43.5,47.7 24.8,47.7 24.8,28.1 24.8,23.2 
			4.3,23.2 4.3,28.1 4.3,65.3 43.5,65.3 43.5,96.8 24.8,96.8 24.8,72.1 4.3,72.1 4.3,116.2 103.5,116.2 103.5,72.1 83.1,72.1 
			83.1,96.8 64.4,96.8 64.4,65.3 103.5,65.3 103.5,28.1 103.5,23.2 83.1,23.2 		"/>
		<path class="st1" d="M178.3,23.2h-3.1h-47.5h-4h-16.5v93h16.5h4h47.5h3.1h17.4v-93H178.3z M127.6,96.8V42.5h47.5v54.3H127.6z"/>
	</g>
</g>
</svg>
