<?xml version="1.0" encoding="utf-8"?>
<!-- Generator: Adobe Illustrator 26.0.1, SVG Export Plug-In . SVG Version: 6.00 Build 0)  -->
<svg version="1.1" id="layer" xmlns="http://www.w3.org/2000/svg" xmlns:xlink="http://www.w3.org/1999/xlink" x="0px" y="0px"
	 viewBox="0 0 256 256" style="enable-background:new 0 0 256 256;" xml:space="preserve">
<style type="text/css">
	.st0{fill:none;stroke:#FFFFFF;stroke-width:10;stroke-miterlimit:10;}
	.st1{fill:#FFFFFF;}
</style>
<path class="st0" d="M230.3,243.3H25.7c-7.2,0-13-5.8-13-13V25.7c0-7.2,5.8-13,13-13h204.7c7.2,0,13,5.8,13,13v204.7
	C243.3,237.5,237.5,243.3,230.3,243.3z"/>
<g>
	<polygon class="st1" points="218.2,102.8 222.2,94.8 177.2,72.3 173.3,79.7 218.2,102.8 218.2,102.8 	"/>
	<polygon class="st1" points="176.6,183.9 222.2,161.5 218.3,153.6 173.2,176.6 176.6,183.9 176.6,183.9 	"/>
	<polygon class="st1" points="204.2,127.6 156.9,171.1 119.3,171 151,140.6 99,141.8 98.5,114.3 149.2,113.8 117,85 157,85.1 
		204.2,127.6 204.2,127.6 	"/>
	<polygon class="st1" points="33.8,220.8 34.1,35 161.3,35.2 161.2,69.3 145.7,69.2 145.7,59.1 58.5,58.9 58.3,195.1 145.5,195.3 
		145.5,187.5 161,187.5 161,221 33.8,220.8 33.8,220.8 	"/>
</g>
</svg>
