<?xml version="1.0" encoding="utf-8"?>
<!-- Generator: Adobe Illustrator 28.0.0, SVG Export Plug-In . SVG Version: 6.00 Build 0)  -->
<svg version="1.1" id="layer" xmlns="http://www.w3.org/2000/svg" xmlns:xlink="http://www.w3.org/1999/xlink" x="0px" y="0px"
	 viewBox="0 0 256 256" style="enable-background:new 0 0 256 256;" xml:space="preserve">
<style type="text/css">
	.st0{fill:#12973B;}
	.st1{fill:#FFFFFF;}
</style>
<g>
	<rect x="0" class="st0" width="256" height="256"/>
	<g>
		<g>
			<path class="st1" d="M31.1,221.6v-42.2h28.8v7.1H39v9.4h19.5v7.1H39v11.5h21.7v7.1H31.1z"/>
			<path class="st1" d="M151,221.6v-42.2h7.8v42.2H151z"/>
			<path class="st1" d="M205.6,222.1V187H194v-7.1h30.9v7.1h-11.5v35.1H205.6z"/>
			<path class="st1" d="M82.4,221.6l13.3-22l-12-20.2h9.2l7.8,13.6l7.6-13.6h9.1l-12.1,20.5l13.3,21.7H109l-8.6-14.6l-8.6,14.6H82.4
				z"/>
		</g>
		<g>
			<polygon class="st1" points="80.6,143.3 108.3,143.3 108.3,110.9 127.5,110.9 127.5,165.3 14.1,165.3 14.1,110.9 33.3,110.9 
				33.3,143.3 61,143.3 61,97.5 15.7,97.5 15.7,42.9 34.9,42.9 34.9,74.6 61,74.6 61,33.9 80.6,33.9 80.6,74.6 108.3,74.6 
				108.3,42.9 125.9,42.9 125.9,97.5 80.6,97.5 			"/>
			<path class="st1" d="M230.2,42.9h-8.4h-58.6H156h-12.8v122.4h19h1h58.6h20.1V42.9H230.2z M163.2,143.2V65h58.6v78.2H163.2z"/>
		</g>
	</g>
</g>
</svg>
