<?xml version="1.0" encoding="utf-8"?>
<!-- Generator: Adobe Illustrator 28.0.0, SVG Export Plug-In . SVG Version: 6.00 Build 0)  -->
<svg version="1.1" id="layer" xmlns="http://www.w3.org/2000/svg" xmlns:xlink="http://www.w3.org/1999/xlink" x="0px" y="0px"
	 viewBox="0 0 256 256" style="enable-background:new 0 0 256 256;" xml:space="preserve">
<style type="text/css">
	.st0{fill:#FFFFFF;}
</style>
<g>
	<g>
		<path class="st0" d="M19.1,233.2v-47.4h32.4v8H28v10.6h21.9v8H28v12.9h24.4v8L19.1,233.2L19.1,233.2z"/>
		<path class="st0" d="M153.8,233.2v-47.4h8.8v47.4H153.8z"/>
		<path class="st0" d="M215.2,233.7v-39.4h-13v-8h34.7v8H224v39.4H215.2z"/>
		<path class="st0" d="M76.8,233.2l14.9-24.7l-13.5-22.7h10.3l8.8,15.3l8.5-15.3h10.2l-13.6,23l14.9,24.4h-10.8L97,216.8l-9.7,16.4
			H76.8z"/>
	</g>
	<g>
		<polygon class="st0" points="74.7,145.2 105.9,145.2 105.9,108.8 127.4,108.8 127.4,169.9 0,169.9 0,108.8 21.6,108.8 21.6,145.2 
			52.7,145.2 52.7,93.7 1.8,93.7 1.8,32.4 23.4,32.4 23.4,68 52.7,68 52.7,22.3 74.7,22.3 74.7,68 105.9,68 105.9,32.4 125.6,32.4 
			125.6,93.7 74.7,93.7 		"/>
		<path class="st0" d="M242.9,32.4h-9.4h-65.9h-8.1h-14.4v137.6h21.4h1.1h65.9H256V32.4H242.9z M167.6,145.1V57.2h65.9v87.9H167.6z"
			/>
	</g>
</g>
</svg>
