<?xml version="1.0" encoding="utf-8"?>
<!-- Generator: Adobe Illustrator 26.0.1, SVG Export Plug-In . SVG Version: 6.00 Build 0)  -->
<svg version="1.1" id="layer" xmlns="http://www.w3.org/2000/svg" xmlns:xlink="http://www.w3.org/1999/xlink" x="0px" y="0px"
	 viewBox="0 0 256 256" style="enable-background:new 0 0 256 256;" xml:space="preserve">
<style type="text/css">
	.st0{fill:none;stroke:#FFFFFF;stroke-width:10;stroke-miterlimit:10;}
	.st1{fill:#FFFFFF;}
</style>
<path class="st0" d="M230.3,243.3H25.7c-7.2,0-13-5.8-13-13V25.7c0-7.2,5.8-13,13-13h204.7c7.2,0,13,5.8,13,13v204.7
	C243.3,237.5,237.5,243.3,230.3,243.3z"/>
<path class="st1" d="M188.6,71.1l-20.5,13.6l-29.9-18.5l-26.8,43.5L74.3,88.1c-2.1-1.3-4.6-1.4-6.8-0.3L34,104.3v75
	c1.8-0.5,3.7-1,5.5-1.7c9-3.2,16-7.7,21-11.6c3.9-3.1,8.7-4.7,13.7-4.7H88l-2.2,3.7c-2.9,5-1.3,11.2,3.7,14.1
	c3.2,1.9,7,1.8,10.1,0.2c0.4,2.3,1.8,4.3,3.9,5.6c3.9,2.3,8.8,0.9,11.1-2.9l2.7-4.7l17.1,10.5l8.4-13.6l79.2-52.6L188.6,71.1z
	 M63.3,135.6c3.2-4.9,7.7-8,12.6-8c4.4,0,8.4,2.4,11.5,6.3L63.3,135.6z M131.5,178l-21.6-13.3l-12.9-8h19c7.4,0,13.3-5.9,13.3-13.3
	c0-7.3-5.9-13.3-13.3-13.3h-7.8l32.7-53l38.3,23.7L131.5,178z M178.6,116.1c-0.2,1,0.1,2.1,0.8,3.1c1.4,1.9,4.1,2.3,6,0.9l2.4-1.8
	c1.1-0.8,1.7-2.1,1.7-3.4c0-0.9-0.3-1.8-0.9-2.5c-1.4-1.9-4.1-2.3-6-0.9l-2.1,1.6l9.2-15l-14.9-9.2l10.9-7.2l24.7,37.2l-57,37.7
	L178.6,116.1z"/>
<path class="st1" d="M134,102.4c-2-1.2-2.6-3.9-1.4-5.9l1.6-2.5c1.2-2,3.9-2.6,5.9-1.4s2.6,3.9,1.4,5.9l-1.6,2.5
	C138.6,103,136,103.6,134,102.4z"/>
<path class="st1" d="M142.5,108c-2-1.2-2.6-3.9-1.4-5.9l1.6-2.5c1.2-2,3.9-2.6,5.9-1.4s2.6,3.9,1.4,5.9l-1.6,2.5
	C147.1,108.6,144.5,109.3,142.5,108z"/>
<path class="st1" d="M150.9,113.7c-2-1.2-2.6-3.9-1.4-5.9l1.6-2.5c1.2-2,3.9-2.6,5.9-1.4s2.6,3.9,1.4,5.9l-1.6,2.5
	C155.6,114.3,152.9,114.9,150.9,113.7z"/>
<path class="st1" d="M159.4,119.3c-2-1.2-2.6-3.9-1.4-5.9l1.6-2.5c1.2-2,3.9-2.6,5.9-1.4s2.6,3.9,1.4,5.9l-1.6,2.5
	C164.1,119.9,161.4,120.6,159.4,119.3z"/>
<path class="st1" d="M185.6,127.5c-1.4-1.9-1-4.6,0.9-6l2.4-1.8c1.9-1.4,4.6-1,6,0.9s1,4.6-0.9,6l-2.4,1.8
	C189.7,129.7,187,129.4,185.6,127.5z"/>
</svg>
