<?xml version="1.0" encoding="utf-8"?>
<!-- Generator: Adobe Illustrator 26.0.1, SVG Export Plug-In . SVG Version: 6.00 Build 0)  -->
<svg version="1.1" id="layer" xmlns="http://www.w3.org/2000/svg" xmlns:xlink="http://www.w3.org/1999/xlink" x="0px" y="0px"
	 viewBox="0 0 256 256" style="enable-background:new 0 0 256 256;" xml:space="preserve">
<style type="text/css">
	.st0{fill:none;stroke:#FFFFFF;stroke-width:10;stroke-miterlimit:10;}
	.st1{fill:#FFFFFF;}
</style>
<path class="st0" d="M230.3,243.3H25.7c-7.2,0-13-5.8-13-13V25.7c0-7.2,5.8-13,13-13h204.7c7.2,0,13,5.8,13,13v204.7
	C243.3,237.5,237.5,243.3,230.3,243.3z"/>
<path class="st1" d="M132.6,176.9h-12.2c-4.9,0-9-4-9-9v0c0-11.1,1.6-20.2,4.8-27.4c3.2-7.2,9.6-15.2,19.2-24.2
	c9.6-8.9,15.4-14.8,17.2-17.6c2.9-4.4,4.3-9.2,4.3-14.5c0-7.3-2.6-13.6-7.7-18.9c-5.1-5.2-12-7.8-20.7-7.8c-8.4,0-15.4,2.7-21,8.2
	c-4.3,4.2-7.6,10-9.8,17.5c-1.3,4.3-5.5,6.9-9.9,6.3l-13.5-1.9c-5-0.7-8.5-5.5-7.6-10.5c2.3-12.1,7.9-22.6,16.8-31.5
	c11.1-11.2,25.6-16.8,43.6-16.8c18.9,0,34,5.7,45.2,17c11.2,11.3,16.8,24.5,16.8,39.5c0,8.3-2.1,16.2-6.2,23.6
	c-4.1,7.4-12.9,17.5-26.3,30.3c-7,6.6-11.3,11.9-13,16c-1.2,2.8-1.9,7.2-2.2,13C141.4,173.2,137.4,176.9,132.6,176.9z M112.1,218.1
	v-16.4c0-5,4-9,9-9h11.5c5,0,9,4,9,9v16.4c0,5-4,9-9,9h-11.5C116.1,227.1,112.1,223,112.1,218.1L112.1,218.1z"/>
</svg>
