<?xml version="1.0" encoding="utf-8"?>
<!-- Generator: Adobe Illustrator 26.0.1, SVG Export Plug-In . SVG Version: 6.00 Build 0)  -->
<svg version="1.1" id="图层_1" xmlns="http://www.w3.org/2000/svg" xmlns:xlink="http://www.w3.org/1999/xlink" x="0px" y="0px"
	 viewBox="0 0 200 200" style="enable-background:new 0 0 200 200;" xml:space="preserve">
<style type="text/css">
	.st0{fill:#D81E06;}
</style>
<path class="st0" d="M30.4,167.9C13.3,150.4,2.7,126.4,2.7,100C2.7,46.4,46.3,2.7,100,2.7c26.4,0,50.4,10.6,67.9,27.7
	c0.3,0.2,0.6,0.5,0.9,0.8c0.3,0.3,0.5,0.6,0.8,0.9c17.1,17.5,27.7,41.5,27.7,67.9c0,53.6-43.6,97.3-97.3,97.3
	c-26.4,0-50.4-10.6-67.9-27.7c-0.3-0.2-0.6-0.5-0.9-0.8C30.9,168.5,30.7,168.2,30.4,167.9L30.4,167.9z M26.8,100
	c0,15.9,5.1,30.5,13.7,42.5l102-102c-12-8.6-26.7-13.7-42.5-13.7C59.6,26.8,26.8,59.6,26.8,100z M173.2,100
	c0-15.9-5.1-30.5-13.7-42.5L57.4,159.6c12,8.6,26.7,13.7,42.5,13.7C140.4,173.2,173.2,140.4,173.2,100z"/>
</svg>
