<?xml version="1.0" encoding="UTF-8"?>
<svg id="_图层_1" data-name="图层 1" xmlns="http://www.w3.org/2000/svg" viewBox="0 0 550.6 550.6">
  <defs>
    <style>
      .cls-1 {
        fill: #231815;
      }

      .cls-2 {
        fill: none;
        stroke: #e72319;
        stroke-miterlimit: 10;
        stroke-width: 46px;
      }
    </style>
  </defs>
  <ellipse class="cls-1" cx="321.24" cy="157.15" rx="24.62" ry="23.48"/>
  <g>
    <circle class="cls-1" cx="178.95" cy="272.81" r="4.47" transform="translate(-141.58 333.74) rotate(-67.5)"/>
    <path class="cls-1" d="M412.85,227.93c-2.75-4.43-6.63-6.42-8.23-7.14l-61.71-31.76c-2.82-1.56-7.25-3.46-12.88-3.78-14.27-.8-24.05,9.29-25.69,11.04-8.12,6.78-16.23,13.56-24.35,20.33v-70.27h-126.35v252.7h-10.28v14.69h97.91v7.16c2.83,6.83,9.45,11.31,16.69,11.34,7.8.03,14.86-5.11,17.35-12.71l-.08-5.8h9.17v-14.69h-4.41v-40.08l47.49-53.78v125.69c2.76,7.69,10.38,12.56,18.38,11.8,7.64-.72,14.03-6.43,15.65-14.07l3.63-192.39,21.78,12.25v39.48c2.21,6.01,7.88,10,14.07,9.98,6.81-.02,12.91-4.9,14.52-11.8v-50.37c-.17-1.7-.71-4.71-2.66-7.84ZM262.14,231.53c-1.4,1.17-2.79,2.33-4.19,3.5v-57.09h-84.48v63.17h77.19l-28.91,24.14c-4.9,5.75-4.88,14.27,0,19.97,4.82,5.62,13.1,6.98,19.51,3.18l20.87-15.57v55.95c-1.7,2.46-4.42,6.28-8.01,10.81-4.29,5.42-6.15,7.23-8.22,10.85-1.57,2.75-3.59,7.09-4.64,13.28v35.33h-72.2v-236.54h93.07v69.02ZM296.63,291.58c-5.54,5.98-11.09,11.96-16.63,17.95v-50.01l16.63-12.41v44.47Z"/>
  </g>
  <g>
    <circle class="cls-2" cx="275.3" cy="275.3" r="252.3"/>
    <line class="cls-2" x1="97.98" y1="95.83" x2="454.76" y2="452.6"/>
  </g>
</svg>