<?xml version="1.0" encoding="utf-8"?>
<!-- Generator: Adobe Illustrator 26.0.1, SVG Export Plug-In . SVG Version: 6.00 Build 0)  -->
<svg version="1.1" id="layer" xmlns="http://www.w3.org/2000/svg" xmlns:xlink="http://www.w3.org/1999/xlink" x="0px" y="0px"
	 viewBox="0 0 200 200" style="enable-background:new 0 0 200 200;" xml:space="preserve">
<style type="text/css">
	.st0{fill:#FFFFFF;}
</style>
<path class="st0" d="M31.1,31.1c-38,38-38,99.9,0,137.9s99.9,38,137.9,0s38-99.9,0-137.9S69.1-6.9,31.1,31.1z M154.8,154.8
	c-30.9,30.9-79.5,30.1-109.6,0c-13.3-13.3-20.3-29.2-22.1-46.8h155.6C175.1,125.6,168.1,141.5,154.8,154.8z M176.9,90.3H23.1
	c0.9-16.8,9.7-32.7,22.1-45.1c30.9-30.9,79.5-30.1,109.6,0C167.2,57.6,176,73.5,176.9,90.3L176.9,90.3z"/>
</svg>
