<?xml version="1.0" encoding="utf-8"?>
<!-- Generator: Adobe Illustrator 26.0.1, SVG Export Plug-In . SVG Version: 6.00 Build 0)  -->
<svg version="1.1" id="layer" xmlns="http://www.w3.org/2000/svg" xmlns:xlink="http://www.w3.org/1999/xlink" x="0px" y="0px"
	 viewBox="0 0 256 256" style="enable-background:new 0 0 256 256;" xml:space="preserve">
<style type="text/css">
	.st0{fill:#0082CD;stroke:#FFFFFF;stroke-width:10;stroke-miterlimit:10;}
	.st1{fill:#FFFFFF;}
</style>
<path class="st0" d="M230.3,243.3H25.7c-7.2,0-13-5.8-13-13V25.7c0-7.2,5.8-13,13-13h204.7c7.2,0,13,5.8,13,13v204.7
	C243.3,237.5,237.5,243.3,230.3,243.3z"/>
<path class="st1" d="M173.2,197.5l-13.3-14c-0.4-0.4-0.2-1,0.2-1.2c23.1-10.8,38.9-33.1,38.9-58.8c0-36.3-31.5-65.8-70.4-65.8
	c-38.9,0-70.4,29.4-70.4,65.8c0,25.6,15.6,47.7,38.4,58.6c0.5,0.2,0.6,0.8,0.2,1.2l-13.8,14.5c-0.2,0.2-0.6,0.3-0.9,0.2
	c-28.1-14.8-47.1-42.8-47.1-74.9c0-41.2,31.3-75.7,73-84.1c0.4-0.1,0.6-0.4,0.6-0.7v0c0-4.5,3.6-8.1,8.1-8.1h22.5
	c4.5,0,8.1,3.6,8.1,8.1v0.1c0,0.4,0.3,0.7,0.6,0.7c41.5,8.6,72.5,42.9,72.5,84c0,32-18.8,59.8-46.7,74.7
	C173.8,197.9,173.4,197.8,173.2,197.5z"/>
<path class="st1" d="M110.7,207.7C110.8,207.7,110.8,207.7,110.7,207.7c10.7-3.3,10-11.4,10-11.4v-38.8l0.2,0l0-2.9
	c0.5-3.1-4.1-6.6-7.4-7.5c-2.1-0.6-11.1-2.6-16.8-3.9c-0.3-0.1-0.6-0.4-0.6-0.7l0-21.7c0-7,5.7-12.8,12.8-12.8h38.9
	c7,0,12.8,5.7,12.8,12.8v22c0,0.4-0.2,0.7-0.6,0.7c-5.7,1.3-14.8,3.3-17,3.9c-3.2,0.9-8,4.5-7.5,7.5v16.3h-0.2l0,24.9
	c0,0,0,0.1,0,0.1c1.1,9.5,12.6,12.9,13.3,13.2c0,0,0.1,0,0.1,0l43,7.6c0.4,0.1,0.6,0.4,0.6,0.8v7.5c0,0.4-0.3,0.8-0.8,0.8H64.8
	c-0.4,0-0.8-0.3-0.8-0.8l0.1-7.7c0-0.4,0.3-0.7,0.6-0.7L110.7,207.7z"/>
</svg>
