<?xml version="1.0" encoding="UTF-8"?>
<svg id="layer" xmlns="http://www.w3.org/2000/svg" version="1.1" viewBox="0 0 518.3 173.8">
  <!-- Generator: Adobe Illustrator 29.4.0, SVG Export Plug-In . SVG Version: 2.1.0 Build 152)  -->
  <defs>
    <style>
      .st0 {
        fill: #5382a1;
      }

      .st1 {
        fill: #f8981d;
      }

      .st2 {
        fill: #f6f6f6;
        stroke: #5382a1;
        stroke-width: 12px;
      }
    </style>
  </defs>
  <path class="st2" d="M489.1,167.9H29.6c-12.9,0-23.3-10.5-23.3-23.3V29.6c0-12.9,10.5-23.3,23.3-23.3h459.4c12.9,0,23.3,10.5,23.3,23.3v115c.1,12.8-10.4,23.3-23.2,23.3Z"/>
  <path class="st0" d="M187.1,28.9h17c10,0,18.2,3.5,18.2,14.7s-8.2,15.5-18.2,15.5h-6.3v17h-10.7V28.9ZM203.2,50.6c5.6,0,8.6-2.4,8.6-7s-3-6.2-8.6-6.2h-5.5v13.3h5.5v-.1ZM202.1,56.2l7.4-6.8,15,26.6h-11.9l-10.5-19.8Z"/>
  <path class="st0" d="M227.7,58.1c0-11.6,8.3-18.8,16.9-18.8,10.2,0,15.3,7.4,15.3,17.2,0,1.9-.2,3.8-.4,4.7h-21.5c1,5.2,4.5,7.6,9.3,7.6,2.7,0,5.2-.8,7.8-2.3l3.5,6.4c-3.7,2.5-8.5,4-12.7,4-10.3,0-18.2-7-18.2-18.8ZM250.8,54.1c0-3.9-1.7-6.8-6-6.8-3.4,0-6.3,2.3-7,6.8h13Z"/>
  <path class="st0" d="M288.7,78.4l.4-5.5c-2.3,2.3-5.8,4-9,4-8.9,0-14.7-7.1-14.7-18.8s7.3-18.8,14.9-18.8c3.9,0,6.7,1.4,9.6,4.4h.3l.9-3.5h8.3v49.2h-10.6v-11h-.1ZM288.7,64.9v-14.7c-1.9-1.7-4-2.3-5.9-2.3-3.4,0-6.5,3.2-6.5,10s2.4,10.2,6.5,10.2c2.3.1,4.1-.8,5.9-3.2Z"/>
  <path class="st0" d="M308.3,62.4v-22.3h10.7v20.9c0,5.2,1.4,6.8,4.5,6.8,2.7,0,4.3-1.1,6.4-3.9v-23.8h10.6v35.9h-8.7l-.8-5h-.3c-3,3.6-6.4,5.8-11.3,5.8-7.7.1-11.1-5.5-11.1-14.4Z"/>
  <path class="st0" d="M348.9,29.3c0-3.3,2.6-5.6,6.2-5.6s6.2,2.3,6.2,5.6-2.6,5.6-6.2,5.6c-3.6,0-6.2-2.4-6.2-5.6ZM349.8,40.1h10.6v35.9h-10.6v-35.9Z"/>
  <path class="st0" d="M369.7,40.1h8.7l.8,6.3h.3c2.6-4.8,6.5-7.1,10.2-7.1,2.1,0,3.2.3,4.3.7l-1.8,9.2c-1.3-.3-2.3-.6-3.9-.6-2.7,0-6,1.7-7.9,6.6v20.8h-10.6v-35.9h-.1Z"/>
  <path class="st0" d="M395.7,58.1c0-11.6,8.3-18.8,16.9-18.8,10.2,0,15.3,7.4,15.3,17.2,0,1.9-.2,3.8-.4,4.7h-21.5c1,5.2,4.5,7.6,9.3,7.6,2.7,0,5.2-.8,7.8-2.3l3.5,6.4c-3.7,2.5-8.5,4-12.7,4-10.3,0-18.2-7-18.2-18.8ZM418.8,54.1c0-3.9-1.7-6.8-6-6.8-3.4,0-6.3,2.3-7,6.8h13Z"/>
  <path class="st0" d="M432.1,71.8l4.8-6.6c3.2,2.5,6.3,3.8,9.3,3.8,3.2,0,4.5-1.2,4.5-3.1,0-2.4-3.6-3.4-7.2-4.9-4.4-1.7-9.5-4.6-9.5-10.5,0-6.7,5.4-11.2,13.7-11.2,5.5,0,9.6,2.2,12.6,4.5l-4.8,6.4c-2.6-1.9-5.1-3.1-7.6-3.1-2.7,0-4.1,1.1-4.1,2.9,0,2.3,3.4,3.2,7.1,4.5,4.5,1.7,9.7,4.2,9.7,10.8s-5.1,11.6-14.7,11.6c-4.8,0-10.2-2.1-13.8-5.1Z"/>
  <g>
    <path class="st0" d="M86.3,119.7s-4.9,2.9,3.5,3.8c10.2,1.2,15.4,1,26.6-1.1,0,0,3,1.9,7.1,3.5-25.2,10.7-57-.7-37.2-6.2"/>
    <path class="st0" d="M83.2,105.6s-5.5,4.1,2.9,4.9c10.9,1.1,19.5,1.2,34.3-1.6,0,0,2.1,2.1,5.3,3.2-30.4,9-64.3.8-42.5-6.5"/>
    <path class="st1" d="M109.1,81.8c6.2,7.1-1.6,13.6-1.6,13.6,0,0,15.7-8.1,8.5-18.3-6.8-9.5-11.9-14.2,16.1-30.5,0,0-44,10.9-23,35.2"/>
    <path class="st0" d="M142.4,130.1s3.6,3-4,5.3c-14.5,4.4-60.4,5.7-73.2.2-4.6-2,4-4.8,6.7-5.3,2.8-.6,4.4-.5,4.4-.5-5.1-3.6-33,7.1-14.2,10.1,51.4,8.3,93.6-3.8,80.3-9.8"/>
    <path class="st0" d="M88.6,91.1s-23.4,5.5-8.3,7.6c6.4.9,19.1.7,30.9-.3,9.7-.8,19.4-2.5,19.4-2.5,0,0-3.4,1.5-5.9,3.1-23.7,6.2-69.5,3.3-56.4-3,11.3-5.6,20.3-4.9,20.3-4.9"/>
    <path class="st0" d="M130.5,114.5c24.1-12.5,13-24.6,5.2-23-1.9.4-2.8.7-2.8.7,0,0,.7-1.1,2.1-1.6,15.4-5.4,27.2,16-5,24.4.1.1.4-.2.5-.5"/>
    <path class="st1" d="M116,20.3s13.4,13.4-12.7,33.9c-20.9,16.5-4.8,25.9,0,36.6-12.2-11-21.1-20.7-15.1-29.7,8.8-13.2,33.2-19.6,27.8-40.8"/>
    <path class="st0" d="M91,148.4c23.1,1.5,58.7-.8,59.5-11.8,0,0-1.6,4.2-19.1,7.4-19.8,3.7-44.1,3.3-58.6.9,0,.1,3,2.6,18.2,3.5"/>
  </g>
  <g>
    <path class="st1" d="M197.21,143.89c-3.67,0-6.75-.72-9.24-2.15-2.49-1.43-4.58-3.61-6.26-6.52l7.66-5.76c.84,1.6,1.82,2.78,2.94,3.54,1.12.76,2.25,1.14,3.38,1.14,1.86,0,3.26-.56,4.21-1.68.95-1.12,1.42-3.22,1.42-6.3v-30.31h11.33v31.19c0,3.08-.55,5.9-1.65,8.45-1.1,2.55-2.78,4.59-5.06,6.11s-5.19,2.28-8.73,2.28Z"/>
    <path class="st1" d="M231.44,143.89c-2.19,0-4.09-.5-5.69-1.49-1.6-.99-2.84-2.32-3.7-3.99-.87-1.67-1.3-3.49-1.3-5.47,0-3.8,1.58-6.76,4.75-8.89s8.25-3.58,15.25-4.33c-.08-.97-.32-1.8-.7-2.5-.38-.7-.96-1.22-1.74-1.58-.78-.36-1.78-.54-3.01-.54-1.43,0-2.91.27-4.43.82-1.52.55-3.19,1.33-5,2.34l-3.92-7.4c1.6-.97,3.24-1.8,4.9-2.5,1.67-.7,3.38-1.24,5.16-1.65,1.77-.4,3.58-.6,5.44-.6,3.12,0,5.76.59,7.91,1.77,2.15,1.18,3.8,2.98,4.94,5.41,1.14,2.43,1.71,5.52,1.71,9.27v20.44h-9.17l-.76-3.61h-.32c-1.48,1.31-3.07,2.38-4.78,3.23-1.71.84-3.55,1.27-5.54,1.27ZM235.3,135.15c1.14,0,2.13-.25,2.97-.76.84-.51,1.67-1.2,2.47-2.09v-5.76c-2.32.29-4.17.72-5.54,1.26-1.37.55-2.34,1.18-2.91,1.9-.57.72-.85,1.5-.85,2.34,0,1.06.35,1.83,1.04,2.34.7.51,1.63.76,2.82.76Z"/>
    <path class="st1" d="M268.96,143l-11.96-36h11.32l4.37,16.58c.46,1.77.92,3.58,1.36,5.44.44,1.86.9,3.73,1.36,5.63h.32c.46-1.9.92-3.77,1.36-5.63.44-1.86.88-3.67,1.3-5.44l4.43-16.58h10.82l-11.64,36h-13.03Z"/>
    <path class="st1" d="M306.29,143.89c-2.19,0-4.09-.5-5.7-1.49-1.6-.99-2.84-2.32-3.7-3.99-.86-1.67-1.3-3.49-1.3-5.47,0-3.8,1.58-6.76,4.75-8.89,3.16-2.13,8.25-3.58,15.25-4.33-.08-.97-.32-1.8-.7-2.5-.38-.7-.96-1.22-1.74-1.58-.78-.36-1.78-.54-3-.54-1.43,0-2.91.27-4.43.82-1.52.55-3.18,1.33-5,2.34l-3.92-7.4c1.6-.97,3.24-1.8,4.9-2.5,1.67-.7,3.39-1.24,5.16-1.65,1.77-.4,3.58-.6,5.44-.6,3.12,0,5.76.59,7.91,1.77,2.15,1.18,3.8,2.98,4.94,5.41,1.14,2.43,1.71,5.52,1.71,9.27v20.44h-9.17l-.76-3.61h-.32c-1.48,1.31-3.07,2.38-4.78,3.23-1.71.84-3.55,1.27-5.54,1.27ZM310.15,135.15c1.14,0,2.13-.25,2.97-.76.84-.51,1.67-1.2,2.47-2.09v-5.76c-2.32.29-4.17.72-5.54,1.26-1.37.55-2.34,1.18-2.91,1.9-.57.72-.85,1.5-.85,2.34,0,1.06.35,1.83,1.04,2.34.7.51,1.63.76,2.82.76Z"/>
    <path class="st1" d="M350.39,143v-9.11h10v-25.56h-8.67v-6.96c2.53-.51,4.69-1.1,6.49-1.77,1.79-.67,3.51-1.52,5.16-2.53h8.29v36.82h8.48v9.11h-29.74Z"/>
    <path class="st1" d="M395.31,143c.21-3.75.57-7.21,1.08-10.38.51-3.16,1.21-6.17,2.12-9.02s2.09-5.66,3.54-8.45c1.46-2.78,3.26-5.67,5.41-8.67h-20.25v-9.43h32.27v6.96c-2.66,3.16-4.79,6.14-6.39,8.92-1.6,2.78-2.84,5.64-3.7,8.57-.87,2.93-1.49,6.13-1.87,9.59-.38,3.46-.68,7.42-.89,11.89h-11.33Z"/>
  </g>
</svg>