<?xml version="1.0" encoding="utf-8"?>
<!-- Generator: Adobe Illustrator 26.0.1, SVG Export Plug-In . SVG Version: 6.00 Build 0)  -->
<svg version="1.1" id="layer" xmlns="http://www.w3.org/2000/svg" x="0px" y="0px"
	 viewBox="0 0 518.3 173.8" style="enable-background:new 0 0 518.3 173.8;" xml:space="preserve">
<style type="text/css">
	.st0{fill:#F6F6F6;stroke:#5382A1;stroke-width:12;}
	.st1{fill:#5382A1;}
	.st2{fill:#F8981D;}
</style>
<path class="st0" d="M489.1,167.9H29.6c-12.9,0-23.3-10.5-23.3-23.3v-115c0-12.9,10.5-23.3,23.3-23.3h459.4
	c12.9,0,23.3,10.5,23.3,23.3v115C512.4,157.4,501.9,167.9,489.1,167.9z"/>
<g>
	<path class="st1" d="M187.1,28.9h17c10,0,18.2,3.5,18.2,14.7c0,10.8-8.2,15.5-18.2,15.5h-6.3v17h-10.7V28.9z M203.2,50.6
		c5.6,0,8.6-2.4,8.6-7c0-4.7-3-6.2-8.6-6.2h-5.5v13.3H203.2z M202.1,56.2l7.4-6.8l15,26.6h-11.9L202.1,56.2z"/>
	<path class="st1" d="M227.7,58.1c0-11.6,8.3-18.8,16.9-18.8c10.2,0,15.3,7.4,15.3,17.2c0,1.9-0.2,3.8-0.4,4.7H238
		c1,5.2,4.5,7.6,9.3,7.6c2.7,0,5.2-0.8,7.8-2.3l3.5,6.4c-3.7,2.5-8.5,4-12.7,4C235.6,76.9,227.7,69.9,227.7,58.1z M250.8,54.1
		c0-3.9-1.7-6.8-6-6.8c-3.4,0-6.3,2.3-7,6.8H250.8z"/>
	<path class="st1" d="M288.7,78.4l0.4-5.5c-2.3,2.3-5.8,4-9,4c-8.9,0-14.7-7.1-14.7-18.8c0-11.7,7.3-18.8,14.9-18.8
		c3.9,0,6.7,1.4,9.6,4.4h0.3l0.9-3.5h8.3v49.2h-10.6V78.4z M288.7,64.9V50.2c-1.9-1.7-4-2.3-5.9-2.3c-3.4,0-6.5,3.2-6.5,10
		c0,7,2.4,10.2,6.5,10.2C285.1,68.2,286.9,67.3,288.7,64.9z"/>
	<path class="st1" d="M308.3,62.4V40.1H319V61c0,5.2,1.4,6.8,4.5,6.8c2.7,0,4.3-1.1,6.4-3.9V40.1h10.6V76h-8.7l-0.8-5h-0.3
		c-3,3.6-6.4,5.8-11.3,5.8C311.7,76.9,308.3,71.3,308.3,62.4z"/>
	<path class="st1" d="M348.9,29.3c0-3.3,2.6-5.6,6.2-5.6c3.6,0,6.2,2.3,6.2,5.6c0,3.2-2.6,5.6-6.2,5.6
		C351.5,34.9,348.9,32.5,348.9,29.3z M349.8,40.1h10.6V76h-10.6V40.1z"/>
	<path class="st1" d="M369.7,40.1h8.7l0.8,6.3h0.3c2.6-4.8,6.5-7.1,10.2-7.1c2.1,0,3.2,0.3,4.3,0.7l-1.8,9.2
		c-1.3-0.3-2.3-0.6-3.9-0.6c-2.7,0-6,1.7-7.9,6.6V76h-10.6V40.1z"/>
	<path class="st1" d="M395.7,58.1c0-11.6,8.3-18.8,16.9-18.8c10.2,0,15.3,7.4,15.3,17.2c0,1.9-0.2,3.8-0.4,4.7H406
		c1,5.2,4.5,7.6,9.3,7.6c2.7,0,5.2-0.8,7.8-2.3l3.5,6.4c-3.7,2.5-8.5,4-12.7,4C403.6,76.9,395.7,69.9,395.7,58.1z M418.8,54.1
		c0-3.9-1.7-6.8-6-6.8c-3.4,0-6.3,2.3-7,6.8H418.8z"/>
	<path class="st1" d="M432.1,71.8l4.8-6.6c3.2,2.5,6.3,3.8,9.3,3.8c3.2,0,4.5-1.2,4.5-3.1c0-2.4-3.6-3.4-7.2-4.9
		c-4.4-1.7-9.5-4.6-9.5-10.5c0-6.7,5.4-11.2,13.7-11.2c5.5,0,9.6,2.2,12.6,4.5l-4.8,6.4c-2.6-1.9-5.1-3.1-7.6-3.1
		c-2.7,0-4.1,1.1-4.1,2.9c0,2.3,3.4,3.2,7.1,4.5c4.5,1.7,9.7,4.2,9.7,10.8c0,6.5-5.1,11.6-14.7,11.6
		C441.1,76.9,435.7,74.8,432.1,71.8z"/>
	<path class="st2" d="M182.7,135.3l7.2-5.4c1.7,3.2,4.2,4.7,6.6,4.7c3.8,0,5.9-1.9,5.9-8.2V95.9H213v31.4c0,9.1-4.7,16.5-15.1,16.5
		C190.7,143.9,185.9,141,182.7,135.3z"/>
	<path class="st2" d="M221.4,133c0-7.6,6-11.7,20.2-13.1c-0.2-3.1-1.8-5.2-5.7-5.2c-3,0-6,1.3-9.5,3.2l-3.8-7
		c4.6-2.8,9.7-4.7,15.3-4.7c9.2,0,14.3,5.2,14.3,16.2V143h-8.7l-0.8-3.7h-0.3c-3,2.7-6.4,4.5-10.4,4.5
		C225.5,143.9,221.4,139.1,221.4,133z M241.6,132.6v-6.3c-7.6,1-10,3.2-10,5.9c0,2.3,1.6,3.4,4.1,3.4
		C238.1,135.6,239.7,134.4,241.6,132.6z"/>
	<path class="st2" d="M257.3,107.1H268l4.7,16.9c0.9,3.6,1.9,7.3,2.8,11h0.3c0.9-3.8,1.9-7.5,2.8-11l4.7-16.9h10.2L281.6,143h-12.3
		L257.3,107.1z"/>
	<path class="st2" d="M295.8,133c0-7.6,6-11.7,20.2-13.1c-0.2-3.1-1.8-5.2-5.7-5.2c-3,0-6,1.3-9.5,3.2l-3.8-7
		c4.6-2.8,9.7-4.7,15.3-4.7c9.2,0,14.3,5.2,14.3,16.2V143H318l-0.8-3.7H317c-3,2.7-6.4,4.5-10.4,4.5
		C300,143.9,295.8,139.1,295.8,133z M316,132.6v-6.3c-7.6,1-10,3.2-10,5.9c0,2.3,1.6,3.4,4.1,3.4C312.5,135.6,314.1,134.4,316,132.6
		z"/>
	<path class="st2" d="M350.4,134.4h10v-26.6h-8.6v-6.6c4.9-0.9,8.2-2.2,11.4-4.2h7.8v37.3h8.6v8.6h-29.3V134.4z"/>
	<path class="st2" d="M386.5,121.1c0-17.2,8.9-24.9,18.6-24.9c6.1,0,10.5,2.6,13.4,5.5l-5.6,6.4c-1.6-1.8-4.4-3.3-7.1-3.3
		c-5.3,0-9.6,4.1-9.6,16.3c0,11.4,3.6,14.8,7.5,14.8c3.1,0,5.8-2.2,5.8-7.4c0-4.9-2.6-6.7-6-6.7c-2.4,0-5.1,1.3-7.1,5l-0.5-6.9
		c2.4-3.5,6.7-5.5,9.7-5.5c7.9,0,13.7,4.5,13.7,14.2c0,9.6-7,15.4-15.3,15.4C395,143.9,386.5,137.2,386.5,121.1z"/>
</g>
<g>
	<path class="st1" d="M86.3,119.7c0,0-4.9,2.9,3.5,3.8c10.2,1.2,15.4,1,26.6-1.1c0,0,3,1.9,7.1,3.5
		C98.3,136.6,66.5,125.2,86.3,119.7"/>
	<path class="st1" d="M83.2,105.6c0,0-5.5,4.1,2.9,4.9c10.9,1.1,19.5,1.2,34.3-1.6c0,0,2.1,2.1,5.3,3.2
		C95.3,121.1,61.4,112.9,83.2,105.6"/>
	<path class="st2" d="M109.1,81.8c6.2,7.1-1.6,13.6-1.6,13.6s15.7-8.1,8.5-18.3c-6.8-9.5-11.9-14.2,16.1-30.5
		C132.1,46.6,88.1,57.5,109.1,81.8"/>
	<path class="st1" d="M142.4,130.1c0,0,3.6,3-4,5.3c-14.5,4.4-60.4,5.7-73.2,0.2c-4.6-2,4-4.8,6.7-5.3c2.8-0.6,4.4-0.5,4.4-0.5
		c-5.1-3.6-33,7.1-14.2,10.1C113.5,148.2,155.7,136.1,142.4,130.1"/>
	<path class="st1" d="M88.6,91.1c0,0-23.4,5.5-8.3,7.6c6.4,0.9,19.1,0.7,30.9-0.3c9.7-0.8,19.4-2.5,19.4-2.5s-3.4,1.5-5.9,3.1
		c-23.7,6.2-69.5,3.3-56.4-3C79.6,90.4,88.6,91.1,88.6,91.1"/>
	<path class="st1" d="M130.5,114.5c24.1-12.5,13-24.6,5.2-23c-1.9,0.4-2.8,0.7-2.8,0.7s0.7-1.1,2.1-1.6c15.4-5.4,27.2,16-5,24.4
		C130.1,115.1,130.4,114.8,130.5,114.5"/>
	<path class="st2" d="M116,20.3c0,0,13.4,13.4-12.7,33.9c-20.9,16.5-4.8,25.9,0,36.6c-12.2-11-21.1-20.7-15.1-29.7
		C97,47.9,121.4,41.5,116,20.3"/>
	<path class="st1" d="M91,148.4c23.1,1.5,58.7-0.8,59.5-11.8c0,0-1.6,4.2-19.1,7.4c-19.8,3.7-44.1,3.3-58.6,0.9
		C72.8,145,75.8,147.5,91,148.4"/>
</g>
</svg>
