<?xml version="1.0" encoding="utf-8"?>
<!-- Generator: Adobe Illustrator 28.0.0, SVG Export Plug-In . SVG Version: 6.00 Build 0)  -->
<svg version="1.1" id="layer" xmlns="http://www.w3.org/2000/svg" xmlns:xlink="http://www.w3.org/1999/xlink" x="0px" y="0px"
	 viewBox="0 0 256 256" style="enable-background:new 0 0 256 256;" xml:space="preserve">
<style type="text/css">
	.st0{fill:none;stroke:#FFFFFF;stroke-width:10;stroke-miterlimit:10;}
	.st1{fill:#FFFFFF;}
</style>
<path class="st0" d="M230.3,243.3H25.7c-7.2,0-13-5.8-13-13V25.7c0-7.2,5.8-13,13-13h204.7c7.2,0,13,5.8,13,13v204.7
	C243.3,237.5,237.5,243.3,230.3,243.3z"/>
<g>
	<path class="st1" d="M138.1,84.5c0-5.8-4.7-10.5-10.5-10.5c-5.8,0-10.5,4.7-10.5,10.5c0,5.8,4.7,10.5,10.5,10.5
		C133.4,94.9,138.1,90.2,138.1,84.5z"/>
	<path class="st1" d="M138.4,97.5h-21.6c-7.5,0-13.6,6.1-13.6,13.6V158c0,1.2,0.5,2.3,1.3,3.2c0.8,0.8,1.9,1.3,3.2,1.3
		c2.4,0,4.4-2,4.4-4.5v-43c0-0.4,0.4-0.8,0.8-0.8c0.5,0,0.8,0.4,0.8,0.8v90.2v9.5c0,1.7,0.7,3.2,1.8,4.4c1.1,1.1,2.6,1.8,4.3,1.8
		c3.4,0,6.2-2.7,6.2-6.2v-9.5v-46.1c0-0.9,0.7-1.6,1.6-1.6c0.9,0,1.6,0.7,1.6,1.6v46.1v9.5c0,1.7,0.7,3.2,1.8,4.4
		c1.1,1.1,2.6,1.8,4.4,1.8c3.4,0,6.2-2.7,6.2-6.2v-9.5V115c0-0.4,0.3-0.8,0.7-0.8h0c0.4,0,0.8,0.4,0.8,0.8v43c0,2.5,2,4.5,4.4,4.5
		c2.5,0,4.5-2,4.5-4.5v-46.9C152,103.6,145.9,97.5,138.4,97.5z"/>
	<polygon class="st1" points="207.1,205.2 190.1,205.2 190.1,44 65.9,44 65.9,205.2 49,205.2 48.4,205.2 48.4,220.9 49,220.9 
		83,220.9 83,205.2 83,62.8 173,62.8 173,205.2 173,220.9 207.1,220.9 207.6,220.9 207.6,205.2 	"/>
</g>
</svg>
