<?xml version="1.0" encoding="utf-8"?>
<!-- Generator: Adobe Illustrator 26.0.1, SVG Export Plug-In . SVG Version: 6.00 Build 0)  -->
<svg version="1.1" id="layer" xmlns="http://www.w3.org/2000/svg" xmlns:xlink="http://www.w3.org/1999/xlink" x="0px" y="0px"
	 viewBox="0 0 256 256" style="enable-background:new 0 0 256 256;" xml:space="preserve">
<style type="text/css">
	.st0{fill:none;stroke:#FFFFFF;stroke-width:10;stroke-miterlimit:10;}
	.st1{fill:#FFFFFF;}
</style>
<path class="st0" d="M230.3,243.3H25.7c-7.2,0-13-5.8-13-13V25.7c0-7.2,5.8-13,13-13h204.7c7.2,0,13,5.8,13,13v204.7
	C243.3,237.5,237.5,243.3,230.3,243.3z"/>
<path class="st1" d="M55.9,33.9h145.5c0.3,0.5,0.5,1,0.8,1.5c1.8,3.1,3.5,6.1,5.4,9.1c0.7,1.1,1,2.3,1,3.6c0,49.4,0,98.9,0,148.3
	c0,1,0.1,2,0.7,2.9c1.3,2.2,1.3,2.2-1.4,2.2H49c-0.3,0-0.5,0-0.8,0c-0.4,0-1,0.2-1.3-0.3c-0.3-0.4,0.2-0.9,0.4-1.2
	c0.9-1.3,1.2-2.7,1.2-4.3c0-38.3,0-76.6,0-114.9V47.5c0-0.7,0-1.3,0.3-1.9C51.2,41.7,53.6,37.8,55.9,33.9z M92.2,148.9
	c-0.3-0.2-0.4-0.2-0.5-0.3c-4.5-1.7-6.9-5-6.9-9.8V97.4c0-0.7,0-1.5,0.2-2.2c1-4.9,5.1-8,10.5-8.1c2.5,0,2.5,0,2.5,2.4v56.9
	c0,0.4,0,0.9,0,1.3c0,0.9,0.4,1.2,1.2,1.1c1.2,0,2.5,0,3.7,0c2.1,0,2.1,0,2.1-2.1v-58c0-1.6,0.1-1.7,1.7-1.7c2,0,3.9,0,5.9,0
	c0.9,0,1.3-0.4,1.3-1.2c0-0.9,0-1.9,0-2.8c0.2-6.2,4.5-10.2,10.7-10.2h10.6c5.1,0,9.5,3.8,10,8.8c0.1,1.1,0.2,2.2,0.1,3.3
	c0,2.2,0,2.2,2.2,2.2h4.6c2.2,0,2.2,0,2.2,2.2v57.3c0,0.4,0,0.9,0,1.3c0,0.7,0.4,1,1,1h4.9c0.7,0,1.1-0.4,1.1-1.1V89.9
	c0-2.9,0-2.9,3-2.8c5.9,0.2,10.1,4.5,10.1,10.3v41.8c0,2.7-1,5-2.9,7c-1.2,1.2-2.7,2-4.3,2.6c3.8,0.1,7.6,0.1,11.3,0.1
	c0.9,0,1.6,0.3,2,1.1c1.2,2.1,2.4,4.2,3.6,6.3c0.8,1.4,1.7,2.8,2.6,4.2l0.2-0.1v-100c0-1.7,0-1.7-1.8-1.7H71.8c-1.8,0-1.8,0-1.8,1.8
	v101c0,0.4-0.2,0.8,0.2,1.2c0.3-0.4,0.5-0.8,0.8-1.2c2.4-3.8,4.8-7.7,7.1-11.6c0.5-0.8,1.1-1.2,2.1-1.2
	C84.1,148.9,88,148.9,92.2,148.9L92.2,148.9z M128.5,189h70.2c0.3,0,0.6,0.1,0.8-0.3c0.1-0.3-0.1-0.4-0.3-0.6
	c-0.5-0.6-1-1.1-1.4-1.8c-0.9-1.6-2.2-2-4-2c-43.1,0-86.1,0-129.2,0c-2.8,0-4.9,0.5-6.2,3.1c-0.2,0.5-1.1,0.8-0.8,1.4
	c0.3,0.5,1,0.2,1.5,0.2C82.3,189,105.4,189,128.5,189L128.5,189z M128.4,170.3h57.5c0.6,0,1.2-0.2,1.1-0.9c-0.1-1,0.6-2.2-0.5-3.1
	c-0.1-0.1-0.4-0.1-0.6-0.1h-115c-0.3,0-0.7,0.1-0.7,0.4c-0.3,1-0.3,2.1,0,3.1c0.2,0.9,1.2,0.5,1.9,0.5
	C90.8,170.3,109.6,170.3,128.4,170.3L128.4,170.3z M117.5,54.7c2.3,0,4.6,0,6.9,0c1,0,1.5-0.3,1.5-1.4c0-4.6,0-9.1,0-13.7
	c0-1.1-0.4-1.4-1.4-1.4c-4.7,0-9.3,0-14,0c-1,0-1.4,0.3-1.4,1.3c0,4.6,0,9.2,0,13.8c0,1,0.3,1.4,1.4,1.4
	C112.7,54.6,115.1,54.7,117.5,54.7z M152,46.4c0-2.3,0-4.6,0-6.9c0-1-0.3-1.4-1.3-1.4c-4.7,0-9.5,0-14.2,0c-0.9,0-1.3,0.3-1.3,1.2
	c0,4.7,0,9.4,0,14.1c0,0.9,0.4,1.2,1.3,1.2c4.7,0,9.5,0,14.2,0c0.9,0,1.3-0.3,1.3-1.3C152,51.1,152,48.7,152,46.4L152,46.4z
	 M129.6,87.1c2.5,0,5,0,7.5,0c1,0,1.6-0.3,1.5-1.4c-0.1-0.9,0-1.9,0-2.8c-0.1-2-1.4-3.4-3.4-3.5c-3.7-0.1-7.3-0.1-11,0
	c-2.1,0-3.4,1.5-3.4,3.5c0,0.9,0,1.9,0,2.8c-0.1,1,0.4,1.4,1.4,1.4C124.6,87.1,127.1,87.1,129.6,87.1z M33.9,222.1
	c2.7-4.5,5.4-8.9,8.1-13.4c0.3-0.5,0.8-0.8,1.3-0.7c0.4,0,0.8,0,1.2,0c55.8,0,111.5,0,167.3,0c1.6,0,2.5,0.5,3.3,1.9
	c2,3.7,4.2,7.3,6.3,11c0.2,0.4,0.4,0.8,0.6,1.2H33.9z"/>
<path class="st1" d="M143.6,51.2c-1.2,0-2.4,0-3.6,0c-0.8,0-1.2-0.2-1.2-1.1c0-2.5,0-4.9,0-7.4c0-0.7,0.3-1,1-1c2.5,0,5.1,0,7.6,0
	c0.8,0,1,0.4,1,1.1c0,2.5,0,4.9,0,7.4c0,0.8-0.3,1.1-1.1,1.1C146.1,51.1,144.9,51.2,143.6,51.2z"/>
</svg>
