<?xml version="1.0" encoding="UTF-8"?>
<svg id="layer" xmlns="http://www.w3.org/2000/svg" viewBox="0 0 240.7 240.6">
  <defs>
    <style>
      .cls-1 {
        fill: #fff;
      }

      .cls-2 {
        fill: none;
        stroke: #fff;
        stroke-miterlimit: 10;
        stroke-width: 10px;
      }
    </style>
  </defs>
  <path class="cls-2" d="M222.6,235.6H18c-7.2,0-13-5.8-13-13V18c0-7.2,5.8-13,13-13h204.7c7.2,0,13,5.8,13,13v204.7c-.1,7.1-5.9,12.9-13.1,12.9Z"/>
  <g>
    <circle class="cls-1" cx="94.1" cy="33.89" r="14.89"/>
    <path class="cls-1" d="M192.98,43.81c-1.18-1.69-2.69-2.53-3.49-2.91h-38.21c-.8-.18-3.74-.72-6.84.91-3.5,1.84-4.65,5.11-4.87,5.79-4.36,7.68-8.72,15.35-13.07,23.03-.17.22-1.7,2.13-4.3,2.11-2.36-.02-3.79-1.61-4.01-1.86l-26.48-19.5c-.5-.31-6.19-3.66-12.49-.87-5.85,2.58-7.41,8.32-7.59,9.02l-12.51,51.51c-.32.9-1.5,4.48.32,7.75.42.76.93,1.37,1.43,1.85-.13,29.22-.25,58.44-.38,87.65.5,6.33,5.79,11.25,12.02,11.3,6.42.05,11.89-5.1,12.22-11.64-.39-27.65-.78-55.3-1.16-82.94.56.02,2.58.02,4.37-1.46,2.49-2.05,2.35-5.19,2.33-5.53l8.44-42.49c3.43,2.23,6.87,4.45,10.3,6.68.68.61,1.78,1.47,3.34,2.11,1.41.58,2.66.76,3.53.82l30.36-.29c3.52-.16,6.33-2.87,6.6-6.11.31-3.63-2.63-7.07-6.6-7.28l-10.28.58,12.51-21.54h34.05l-21.54,39.58-45.4.58c-1.62,1.97-1.71,4.75-.29,6.69,1.23,1.68,3.4,2.48,5.53,2.04v118.16h66.65V63.02l6.98-12.51c.12-.72.55-3.84-1.46-6.69ZM150.23,121.17c0,1.6-1.3,2.9-2.9,2.9h-17.94c-1.6,0-2.9-1.3-2.9-2.9h0c0-1.6,1.3-2.9,2.9-2.9h17.94c1.6,0,2.9,1.3,2.9,2.9h0Z"/>
  </g>
</svg>