<?xml version="1.0" encoding="utf-8"?>
<!-- Generator: Adobe Illustrator 26.0.1, SVG Export Plug-In . SVG Version: 6.00 Build 0)  -->
<svg version="1.1" id="layer" xmlns="http://www.w3.org/2000/svg" xmlns:xlink="http://www.w3.org/1999/xlink" x="0px" y="0px"
	 viewBox="0 0 256 256" style="enable-background:new 0 0 256 256;" xml:space="preserve">
<style type="text/css">
	.st0{fill:none;stroke:#FFFFFF;stroke-width:10;stroke-miterlimit:10;}
	.st1{fill:#FFFFFF;}
</style>
<path class="st0" d="M230.3,243.3H25.7c-7.2,0-13-5.8-13-13V25.7c0-7.2,5.8-13,13-13h204.7c7.2,0,13,5.8,13,13v204.7
	C243.3,237.5,237.5,243.3,230.3,243.3z"/>
<g>
	<path class="st1" d="M81.6,76.9c5.1,0,9.3-4.2,9.3-9.3c0-5.1-4.2-9.3-9.3-9.3s-9.3,4.2-9.3,9.3C72.3,72.7,76.5,76.9,81.6,76.9z"/>
	<path class="st1" d="M145.7,55.5c4.6,0,8.4-3.8,8.4-8.4c0-4.6-3.8-8.4-8.4-8.4c-4.6,0-8.4,3.8-8.4,8.4
		C137.3,51.7,141.1,55.5,145.7,55.5z"/>
	<path class="st1" d="M60.6,127c4-3.8,6.8-10.7,10.8-14.5c-0.3,21,0.3,44.2,0,65.3c0.7,7.5,10.9,9.2,11.2,0v-20.9
		c4.6,3,8.8,5.7,13.4,8.7c4.3,2.1,11.4-2.2,5.5-9l-14.6-10.7c-3.6-2.6-4.9-1.6-4.5-7.7c6-6.5,10-9.5,10.7-20.7
		c-0.3-9.4-0.6-18.9-0.9-28.3C88.7,78.6,75,78.4,70.5,90l0.1,8.5L54,121C50.5,126.4,56.5,130.5,60.6,127z"/>
	<path class="st1" d="M200.5,115.9v17.5h-28v-11.8c0-4.3-0.4-7-2.8-9.4l-14.3-9.3l0.3-16.1l12,6.3c3.7,0,4.8-2,3.3-6l-15.3-9.8
		l-0.4-9.2c-0.4-9.3-16-11.5-18.9-0.2v30.4c0.1,3,1.2,6,4.7,8.5v40.3c0.5,2.9,2.2,4.4,4,4.7h-20.9v17.1H86.6V185H47.9v16.4H20.6v16
		h45.5v-15.9h38.7v-17.1h36.8v-16.7h37.9v-16.7h38v-18.2h17.9V116L200.5,115.9z M162.5,151.6h-15.6c1.9-0.4,3.5-2,3.4-4.7v-36
		l12.7,8.7v13.8h-0.5V151.6z"/>
</g>
</svg>
