<?xml version="1.0" encoding="utf-8"?>
<!-- Generator: Adobe Illustrator 26.0.1, SVG Export Plug-In . SVG Version: 6.00 Build 0)  -->
<svg version="1.1" id="layer" xmlns="http://www.w3.org/2000/svg" xmlns:xlink="http://www.w3.org/1999/xlink" x="0px" y="0px"
	 viewBox="0 0 400 460" style="enable-background:new 0 0 400 460;" xml:space="preserve">
<style type="text/css">
	.st0{fill:#E60012;}
</style>
<polygon class="st0" points="257.8,4 140.6,4 140.6,46.1 178.2,46.1 178.2,85.9 220.3,85.9 220.3,46.1 257.8,46.1 "/>
<path class="st0" d="M42.3,224.1c0,94.9,66.6,133.2,66.6,133.2l-22.5,33.4c0,0-87.3-52.4-83.9-163.5c3.8-126.2,102.8-172,102.8-172
	l74.6,75.6h37L292,55.2c0,0,104.3,50,104.3,172c0,110.8-84.3,165.1-84.3,165.1l-24.8-34.6c0,0,70.8-43.8,67.3-130.9
	c-3.2-80.1-56.9-116.2-56.9-116.2L234,173h-70.1l-64.3-63.9C99.6,109.1,45.8,150.1,42.3,224.1z"/>
<path class="st0" d="M356.2,224.1c0,94.9-66.6,133.2-66.6,133.2l22.5,33.4c0,0,87.3-52.4,83.9-163.5c-3.8-126.2-102.8-172-102.8-172
	l-74.6,75.6h-37l-75.1-75.6c0,0-104.3,50-104.3,172c0,110.8,84.3,165.1,84.3,165.1l24.8-34.6c0,0-70.8-43.8-67.3-130.9
	c3.2-80.1,56.9-116.2,56.9-116.2l63.5,62.3h70.1l64.3-63.9C298.9,109.1,352.8,150.1,356.2,224.1z"/>
<path class="st0" d="M236.9,411.7c-19-7.4-22.5-31.3-22.5-31.3l0.2-72.5c0.2-19.4,22.9-36.1,36.1-37.5c13.2-1.4,15-11.1,15-11.1
	s0,0,0-33c-1-16.9-21-19.8-21-19.8H200h-1.5h-44.7c0,0-20,2.9-21,19.8c0,33,0,33,0,33s1.8,9.7,15,11.1c13.2,1.4,35.9,18.1,36.1,37.5
	l0.2,72.5c0,0-3.5,23.9-22.5,31.3c-6.4,3.3-98.3,21-98.3,21v17.9H197h4.5h133.7v-17.9C335.2,432.7,243.3,415,236.9,411.7z"/>
</svg>
