<?xml version="1.0" encoding="utf-8"?>
<!-- Generator: Adobe Illustrator 26.0.1, SVG Export Plug-In . SVG Version: 6.00 Build 0)  -->
<svg version="1.1" id="图层_1" xmlns="http://www.w3.org/2000/svg" xmlns:xlink="http://www.w3.org/1999/xlink" x="0px" y="0px"
	 viewBox="0 0 592.9 708.3" style="enable-background:new 0 0 592.9 708.3;" xml:space="preserve">
<style type="text/css">
	.st0{fill:#CA1C1C;}
	.st1{fill:#FFFFFF;}
</style>
<path class="st0" d="M466,0H122.2C54.7,0,0,54.7,0,122.2v346.5c0,71.6,58,129.6,129.6,129.6h15h0.1l23.3-40.6
	c6-10.4,16.7-16.8,28.1-16.8H394c9.3,0,17.9,4.8,22.8,12.8l27.3,44.6h0.1h14c74.4,0,134.6-60.3,134.6-134.6V126.9
	C592.9,56.8,536.1,0,466,0z"/>
<g id="图层_3">
	<path class="st1" d="M346,83.7H239c-13.1,0-23.6-10.6-23.6-23.6l0,0c0-13.1,10.6-23.6,23.6-23.6h107c13.1,0,23.6,10.6,23.6,23.6
		l0,0C369.6,73.2,359,83.7,346,83.7z"/>
	<path class="st1" d="M489.4,320.9H98c-20.4,0-36.9-16.5-36.9-36.9V148.8c0-20.4,16.5-36.9,36.9-36.9h391.4
		c20.4,0,36.9,16.5,36.9,36.9V284C526.3,304.4,509.8,320.9,489.4,320.9z"/>
	
		<ellipse transform="matrix(7.088903e-02 -0.9975 0.9975 7.088903e-02 -373.1272 534.2144)" class="st1" cx="100.2" cy="467.4" rx="38.1" ry="38.1"/>
	
		<ellipse transform="matrix(0.1602 -0.9871 0.9871 0.1602 -45.067 881.8301)" class="st1" cx="495.7" cy="467.4" rx="38.1" ry="38.1"/>
	<circle class="st1" cx="298.7" cy="431.1" r="82.3"/>
	<rect x="199.6" y="411.3" class="st0" width="86.2" height="21.6"/>
	<rect x="308.6" y="411.3" class="st0" width="90.8" height="21.6"/>
	<polygon class="st0" points="308.6,432.9 285.8,432.9 274.6,519.1 318.2,519.1 	"/>
</g>
<g id="图层_4">
</g>
<g id="图层_5">
	<path class="st0" d="M184.9,673.7h220.8l22.1,34.6h70.3L396,580.3c-4.9-6.2-12.4-9.8-20.3-9.8H208.1c-5,0-9.6,2.3-12.7,6.2
		L91.3,708.3h71L184.9,673.7z M238.6,592h107.9l16.4,26.1c0.6,0.9-0.1,2.1-1.1,2.1h-139c-0.8,0-1.4-0.6-1.4-1.4L238.6,592z"/>
</g>
</svg>
