<?xml version="1.0" encoding="utf-8"?>
<!-- Generator: Adobe Illustrator 28.0.0, SVG Export Plug-In . SVG Version: 6.00 Build 0)  -->
<svg version="1.1" id="layer" xmlns="http://www.w3.org/2000/svg" xmlns:xlink="http://www.w3.org/1999/xlink" x="0px" y="0px"
	 viewBox="0 0 256 256" style="enable-background:new 0 0 256 256;" xml:space="preserve">
<style type="text/css">
	.st0{fill:none;stroke:#FFFFFF;stroke-width:10;stroke-miterlimit:10;}
	.st1{fill:#FFFFFF;}
</style>
<path class="st0" d="M230.3,243.3H25.7c-7.2,0-13-5.8-13-13V25.7c0-7.2,5.8-13,13-13h204.7c7.2,0,13,5.8,13,13v204.7
	C243.3,237.5,237.5,243.3,230.3,243.3z"/>
<g>
	<polygon class="st1" points="63.7,227.1 87.7,227.1 97.3,203.3 87.7,203.3 	"/>
	<ellipse class="st1" cx="69.8" cy="138.1" rx="4.3" ry="4.3"/>
	<ellipse class="st1" cx="76.8" cy="148.3" rx="4.3" ry="4.3"/>
	<path class="st1" d="M193.1,49.9c-2.7-12.4-6.2-13.8-11.9-16.5c-5.7-2.7-44.9-4.6-53.1-4.6s-47.4,1.9-53.1,4.6
		c-5.7,2.7-9.2,4.1-11.9,16.5s-7.1,91.9-6.3,106c0.7,14,6.6,28.9,8.9,34.6c2.4,5.7,5.8,10,6.2,10H128h56.2c0.4,0,3.8-4.3,6.2-10
		s8.2-20.6,8.9-34.6S195.8,62.3,193.1,49.9z M104.1,46.9c0-0.6,0.3-0.9,0.9-0.9H128h23.1c0.6,0,0.9,0.3,0.9,0.9c0,0.5,0,3.1,0,7.7
		c0,0.7-0.3,1-0.9,1H128h-23.1c-0.6,0-0.9-0.3-0.9-1C104.1,50.1,104.1,47.5,104.1,46.9z M78.2,53.6H99v5.2c0,0.7,0.4,1.1,1.1,1.1h3
		h25h25h3c0.7,0,1.1-0.4,1.1-1.1v-5.2h20.8l3.2,62.2h-53H75L78.2,53.6z M180.1,124.4l-26.6,31.3H128h-25.6l-26.6-31.3H128H180.1z
		 M67.5,153.6c-1.5,0-2.7-1.2-2.7-2.7V131c0-2.5,3.2-3.7,4.8-1.8l16.9,19.9c1.5,1.8,0.2,4.5-2.1,4.5H67.5z M178.9,171.6H128H77.1
		v-5.7H128h50.9V171.6z M191.3,150.9c0,1.5-1.2,2.7-2.7,2.7h-16.9c-2.3,0-3.6-2.7-2.1-4.5l16.9-19.9c1.6-1.9,4.8-0.8,4.8,1.8V150.9z
		"/>
	<ellipse class="st1" cx="186.2" cy="138.1" rx="4.3" ry="4.3"/>
	<ellipse class="st1" cx="179.2" cy="148.3" rx="4.3" ry="4.3"/>
	<polygon class="st1" points="158.7,203.3 168.3,227.1 192.3,227.1 168.3,203.3 	"/>
</g>
</svg>
