<?xml version="1.0" encoding="utf-8"?>
<!-- Generator: Adobe Illustrator 28.0.0, SVG Export Plug-In . SVG Version: 6.00 Build 0)  -->
<svg version="1.1" id="layer" xmlns="http://www.w3.org/2000/svg" xmlns:xlink="http://www.w3.org/1999/xlink" x="0px" y="0px"
	 viewBox="0 0 256 256" style="enable-background:new 0 0 256 256;" xml:space="preserve">
<style type="text/css">
	.st0{fill:none;stroke:#FFFFFF;stroke-width:10;stroke-miterlimit:10;}
	.st1{fill:#FFFFFF;}
</style>
<path class="st0" d="M230.3,243.3H25.7c-7.2,0-13-5.8-13-13V25.7c0-7.2,5.8-13,13-13h204.7c7.2,0,13,5.8,13,13v204.7
	C243.3,237.5,237.5,243.3,230.3,243.3z"/>
<g>
	<path class="st1" d="M38.7,144.9c-1.3,0-2.3,1.1-2.3,2.3c0.2,5.6,2.6,19.3,21.3,19.3h171.5c1.3,0,2.3-1,2.3-2.3v-17.1
		c0-1.3-1-2.3-2.3-2.3H38.7z"/>
	<rect x="24.5" y="173.4" class="st1" width="207" height="13.5"/>
	<path class="st1" d="M204.7,115.6c-1.3,0-2.3-1-2.3-2.2V81.5c0-1.2,1-2.2,2.3-2.2h26.8v-8c0-1.2-1-2.2-2.2-2.2H79
		c-0.8,0-1.9,0-3.3,0.1c-20.5,2-32.4,26.6-33.7,29.3c-4.2,9-5.5,17.7-5.6,24.8h0v2.2l0,9.6c0,1.2,1,2.2,2.2,2.2h190.7
		c1.2,0,2.2-1,2.2-2.2v-8h0v-2.9v-6.3v-2.2H204.7z M110.2,113.4c0,1.2-1,2.2-2.2,2.2l-55.7,0c-1.5,0-2.6-1.4-2.2-2.8
		c1.5-5.5,4.4-13,10-20.5l0.1-0.2c6-8.1,15.5-12.8,25.5-12.8H108c1.2,0,2.2,1,2.2,2.2V113.4z M152,113.4c0,1.2-1,2.2-2.3,2.2h-28.5
		c-1.3,0-2.3-1-2.3-2.2V81.5c0-1.2,1-2.2,2.3-2.2h28.5c1.3,0,2.3,1,2.3,2.2V113.4z M193.7,113.4c0,1.2-1,2.2-2.3,2.2H163
		c-1.3,0-2.3-1-2.3-2.2V81.5c0-1.2,1-2.2,2.3-2.2h28.5c1.3,0,2.3,1,2.3,2.2V113.4z"/>
</g>
</svg>
