<?xml version="1.0" encoding="utf-8"?>
<!-- Generator: Adobe Illustrator 26.0.1, SVG Export Plug-In . SVG Version: 6.00 Build 0)  -->
<svg version="1.1" id="layer" xmlns="http://www.w3.org/2000/svg" xmlns:xlink="http://www.w3.org/1999/xlink" x="0px" y="0px"
	 viewBox="0 0 256 256" style="enable-background:new 0 0 256 256;" xml:space="preserve">
<style type="text/css">
	.st0{fill:none;stroke:#FFFFFF;stroke-width:10;stroke-miterlimit:10;}
	.st1{fill:#FFFFFF;}
</style>
<path class="st0" d="M230.3,243.3H25.7c-7.2,0-13-5.8-13-13V25.7c0-7.2,5.8-13,13-13h204.7c7.2,0,13,5.8,13,13v204.7
	C243.3,237.5,237.5,243.3,230.3,243.3z"/>
<g>
	<polygon class="st1" points="33.9,134.4 33.9,146.2 135.8,146.2 135.8,215.8 147.6,215.8 147.6,146.2 226.6,146.2 226.6,134.4 	"/>
	<path class="st1" d="M215.6,85.3L215.6,85.3l-0.1-0.1c-0.2-0.2-0.4-0.4-0.7-0.6l0,0c-0.1-0.1-0.3-0.3-0.4-0.4
		c-2.1-1.9-40.4-38.9-40.4-38.9c-5.5-5-7.6-5-11.4-5H40.8c-3.8,0-6.9,2.8-6.9,6.2v8.4h14.6c2.4,0,4.3,1.9,4.3,4.3v19.7
		c0,2.4-1.9,4.3-4.3,4.3H33.9v1.4v0.8v6.8h187.8C220.2,89.9,218.1,87.6,215.6,85.3z M105.5,78.8c0,2.4-1.9,4.3-4.3,4.3H62
		c-2.4,0-4.3-1.9-4.3-4.3V59.2c0-2.4,1.9-4.3,4.3-4.3h39.2c2.4,0,4.3,1.9,4.3,4.3V78.8z M158.2,78.8c0,2.4-1.9,4.3-4.3,4.3h-39.2
		c-2.4,0-4.3-1.9-4.3-4.3V59.2c0-2.4,1.9-4.3,4.3-4.3h39.2c2.4,0,4.3,1.9,4.3,4.3V78.8z M198.4,83.2h-0.3H198h-30.7
		c-2.4,0-4.3-1.9-4.3-4.3V59.2c0-2.4,1.9-4.3,4.3-4.3h2.8c1.5,0,3,1.1,3,1.1s24.5,23.4,26.7,25.4C201.7,82.9,199.4,83.1,198.4,83.2z
		"/>
	<path class="st1" d="M225.8,100L225.8,100H33.9v13.4c0,3.4,3.1,6.2,6.9,6.2h162.9C219.3,119.6,229.4,111.8,225.8,100z"/>
</g>
</svg>
