<?xml version="1.0" encoding="UTF-8"?>
<svg id="layer" xmlns="http://www.w3.org/2000/svg" viewBox="0 0 240.7 240.6">
  <defs>
    <style>
      .cls-1 {
        fill: #fff;
      }

      .cls-2 {
        fill: none;
        stroke: #fff;
        stroke-miterlimit: 10;
        stroke-width: 10px;
      }
    </style>
  </defs>
  <path class="cls-2" d="M222.6,235.6H18c-7.2,0-13-5.8-13-13V18c0-7.2,5.8-13,13-13h204.7c7.2,0,13,5.8,13,13v204.7c-.1,7.1-5.9,12.9-13.1,12.9Z"/>
  <g>
    <polygon class="cls-1" points="23.24 151.32 94.69 151.32 94.69 187.53 103.36 187.53 103.36 151.32 134.25 151.32 134.25 187.53 142.91 187.53 142.91 151.32 217.36 151.32 217.36 137.82 23.24 137.82 23.24 151.32"/>
    <path class="cls-1" d="M30.91,131.81h64.68l7.29-78.74c-11.36.32-36.96,3.45-57.44,24.49-15.5,15.93-20.48,34.32-22.12,45.48-.68,4.63,2.91,8.78,7.59,8.78ZM52.71,97.09c1.23-4.32,3.41-9.94,7.39-15.71,4.52-6.55,9.81-11.06,14.31-14.08,4-2.68,8.72-4.07,13.53-4.07h2.96c1.06,0,1.92.86,1.92,1.92v32.45c0,1.06-.86,1.92-1.92,1.92h-36.33c-1.28,0-2.21-1.21-1.86-2.44Z"/>
    <path class="cls-1" d="M209.69,53.1h-101.41l-7.28,78.7h108.69c4.24,0,7.67-3.43,7.67-7.67v-63.36c0-4.24-3.43-7.67-7.67-7.67ZM138.58,97.33h-.08c0,1.2-.79,2.2-1.82,2.2h-22.46c-1.03,0-1.82-1-1.82-2.2v-31.9c0-1.2.79-2.2,1.82-2.2h22.54c1.03,0,1.82,1,1.82,2.2v31.9ZM173.43,97.33h-.08c0,1.2-.79,2.2-1.82,2.2h-22.46c-1.03,0-1.82-1-1.82-2.2v-31.9c0-1.2.79-2.2,1.82-2.2h22.54c1.03,0,1.82,1,1.82,2.2v31.9ZM208.28,97.33h-.08c0,1.2-.79,2.2-1.82,2.2h-22.46c-1.03,0-1.82-1-1.82-2.2v-31.9c0-1.2.79-2.2,1.82-2.2h22.54c1.03,0,1.82,1,1.82,2.2v31.9Z"/>
  </g>
</svg>