<?xml version="1.0" encoding="utf-8"?>
<!-- Generator: Adobe Illustrator 26.0.1, SVG Export Plug-In . SVG Version: 6.00 Build 0)  -->
<svg version="1.1" id="layer" xmlns="http://www.w3.org/2000/svg" xmlns:xlink="http://www.w3.org/1999/xlink" x="0px" y="0px"
	 viewBox="0 0 256 256" style="enable-background:new 0 0 256 256;" xml:space="preserve">
<style type="text/css">
	.st0{fill:none;stroke:#FFFFFF;stroke-width:10;stroke-miterlimit:10;}
	.st1{fill:#FFFFFF;}
</style>
<path class="st0" d="M230.3,243.3H25.7c-7.2,0-13-5.8-13-13V25.7c0-7.2,5.8-13,13-13h204.7c7.2,0,13,5.8,13,13v204.7
	C243.3,237.5,237.5,243.3,230.3,243.3z"/>
<g>
	<path class="st1" d="M72.2,65.3c6.5,0,11.8-5.3,11.8-11.8c0,0,0,0,0,0c0-6.5-5.3-11.8-11.8-11.8c-6.5,0-11.8,5.3-11.8,11.8
		c0,0,0,0,0,0C60.4,60,65.6,65.3,72.2,65.3z"/>
	<path class="st1" d="M84.3,68.2H60c-8.5,0-15.3,6.8-15.3,15.3v52.8c0,1.4,0.6,2.6,1.5,3.5c0.9,0.9,2.1,1.5,3.5,1.5c2.8,0,5-2.2,5-5
		V87.9c0-0.5,0.4-0.9,0.9-0.9s0.9,0.4,0.9,0.9v119.6c0,1.9,0.8,3.7,2,4.9c1.2,1.3,3,2,4.9,2c3.8,0,6.9-3.1,6.9-6.9v-70.1
		c0-1,0.8-1.8,1.8-1.8s1.8,0.8,1.8,1.8v70.1c0,1.9,0.8,3.7,2,4.9c1.2,1.3,3,2,4.9,2c3.8,0,6.9-3.1,6.9-6.9V87.9
		c0-0.5,0.4-0.9,0.9-0.9h0c0.5,0,0.9,0.4,0.9,0.9v48.4c0,2.8,2.2,5,5,5h0c2.8,0,5-2.2,5-5V83.5C99.6,75.1,92.8,68.2,84.3,68.2z"/>
	<path class="st1" d="M176.9,65.3c6.5,0,11.8-5.3,11.8-11.8c0,0,0,0,0,0c0-6.5-5.3-11.8-11.8-11.8c-6.5,0-11.8,5.3-11.8,11.8
		c0,0,0,0,0,0C165.1,60,170.4,65.3,176.9,65.3z"/>
	<path class="st1" d="M208.6,158.5l-18.3-44c-0.3-0.8-0.5-1.6-0.5-2.4V87.9c0-0.4,0.3-0.8,0.7-0.9c0.1,0,0.1,0,0.2,0s0.1,0,0.2,0
		c0.4,0.1,0.7,0.4,0.7,0.9v23.7c0,0.7,0.1,1.3,0.4,1.9l4.9,11.9l2,4.7c0.9,2.2,3.2,3.6,5.6,3.1c3.2-0.6,4.9-4,3.7-6.8l-6.2-14.9
		c-0.2-0.6-0.4-1.2-0.4-1.9V83.5c0-8.5-6.9-15.3-15.3-15.3h-0.9c-2.1,2.2-5.1,3.5-8.4,3.5s-6.3-1.4-8.4-3.5h-0.9
		c-8.5,0-15.3,6.8-15.3,15.3v26.1c0,0.7-0.1,1.3-0.4,1.9l-6.2,14.9c-0.3,0.6-0.4,1.3-0.4,1.9c0,2,1.1,3.8,3.1,4.6
		c2.5,1.1,5.5-0.2,6.5-2.7l2.2-5.3l4.7-11.4c0.2-0.6,0.4-1.2,0.4-1.9V87.9c0-0.5,0.4-0.9,0.9-0.9s0.9,0.4,0.9,0.9V112
		c0,0.8-0.2,1.7-0.5,2.4l-18.3,44c-0.5,1.2,0.4,2.5,1.7,2.5h13.7c0.4,0,0.6,0.3,0.6,0.6v45.9c0,1.9,0.8,3.7,2,4.9c1.2,1.3,3,2,4.9,2
		c3.8,0,6.9-3.1,6.9-6.9v-44.7c0-1,0.8-1.8,1.8-1.8s1.8,0.8,1.8,1.8v44.7c0,1.9,0.8,3.7,2,4.9c1.2,1.3,3,2,4.9,2
		c3.8,0,6.9-3.1,6.9-6.9v-45.9c0-0.4,0.3-0.6,0.6-0.6h13.7C208.2,161,209.1,159.7,208.6,158.5z"/>
	<rect x="119.6" y="39.5" class="st1" width="9.5" height="175"/>
</g>
</svg>
