<?xml version="1.0" encoding="utf-8"?>
<!-- Generator: Adobe Illustrator 26.0.1, SVG Export Plug-In . SVG Version: 6.00 Build 0)  -->
<svg version="1.1" id="layer" xmlns="http://www.w3.org/2000/svg" xmlns:xlink="http://www.w3.org/1999/xlink" x="0px" y="0px"
	 viewBox="0 0 256 256" style="enable-background:new 0 0 256 256;" xml:space="preserve">
<style type="text/css">
	.st0{fill:none;stroke:#FFFFFF;stroke-width:10;stroke-miterlimit:10;}
	.st1{fill:#FFFFFF;}
</style>
<path class="st0" d="M230.3,243.3H25.7c-7.2,0-13-5.8-13-13V25.7c0-7.2,5.8-13,13-13h204.7c7.2,0,13,5.8,13,13v204.7
	C243.3,237.5,237.5,243.3,230.3,243.3z"/>
<g>
	<path class="st1" d="M128,26.7c-71.3,0-94.2,55.6-94.2,55.6v145L58,203.2V92c0,0,18.4-42,70-42.3C179.5,50,198,92,198,92v111.1
		l24.2,24.1v-145C222.2,82.3,199.3,26.7,128,26.7z"/>
	<path class="st1" d="M163.2,194.3v-12h1.9c5.5,0,10-4.5,10-10V78.7c0-5.5-4.5-10-10-10H90.8c-5.5,0-10,4.5-10,10v93.6
		c0,5.5,4.5,10,10,10h1.9v12.1l-25.4,32.9h13.1l24.5-32.7h46l24.5,32.7h13.1L163.2,194.3z M114.2,77.3h27.3c2.6,0,4.7,2.1,4.7,4.7
		s-2.1,4.7-4.7,4.7h-27.3c-2.6,0-4.7-2.1-4.7-4.7C109.6,79.4,111.7,77.3,114.2,77.3z M92.7,98.3c0-3.5,2.8-6.3,6.3-6.3h57.9
		c3.5,0,6.3,2.8,6.3,6.3v23c0,3.5-2.8,6.3-6.3,6.3H99c-3.5,0-6.3-2.8-6.3-6.3V98.3z M103.1,166.7c-5.7,0-10.4-4.6-10.4-10.4
		c0-5.7,4.6-10.4,10.4-10.4c5.7,0,10.4,4.6,10.4,10.4C113.4,162.1,108.8,166.7,103.1,166.7z M153.3,166.7c-5.7,0-10.4-4.6-10.4-10.4
		c0-5.7,4.6-10.4,10.4-10.4c5.7,0,10.4,4.6,10.4,10.4C163.6,162.1,159,166.7,153.3,166.7z"/>
</g>
</svg>
