<?xml version="1.0" standalone="no"?><!DOCTYPE svg PUBLIC "-//W3C//DTD SVG 1.1//EN" "http://www.w3.org/Graphics/SVG/1.1/DTD/svg11.dtd"><svg t="1791199142366" class="icon" viewBox="0 0 1024 1024" version="1.1" xmlns="http://www.w3.org/2000/svg" p-id="1690" xmlns:xlink="http://www.w3.org/1999/xlink" width="200" height="200"><path d="M512 0c282.766222 0 512 229.233778 512 512 0 279.608889-224.142222 506.88-502.613333 511.914667L512 1024c-70.570667 0-137.841778-14.279111-198.997333-40.106667C129.080889 906.24 0 724.195556 0 512 0 232.391111 224.142222 5.12 502.613333 0.085333L512 0z m0 113.777778C292.892444 113.777778 113.777778 292.892444 113.777778 512s179.114667 398.222222 398.222222 398.222222 398.222222-179.114667 398.222222-398.222222S731.107556 113.777778 512 113.777778z" fill="#ffffff" p-id="1691"></path><path d="M597.560889 327.907556l1.536-92.814223s0-4.807111 9.443555-6.912a22.272 22.272 0 0 1 15.701334 3.982223l160.256 119.04c8.590222 4.750222 14.108444 13.539556 14.705778 23.381333a24.576 24.576 0 0 1-11.093334 21.020444l-165.006222 110.222223a40.334222 40.334222 0 0 1-19.2 1.649777c-9.415111-2.161778-9.415111-9.244444-9.415111-9.244444l1.706667-86.812445-158.549334-2.56s-125.383111 14.848-126.122666 61.895112c0 0 4.664889-147.228444 131.470222-145.066667M429.169778 699.335111l-1.536 92.928s-1.820444 5.603556-12.003556 6.855111a16.440889 16.440889 0 0 1-12.544-3.868444L242.858667 676.124444a28.842667 28.842667 0 0 1-14.848-23.523555 24.661333 24.661333 0 0 1 11.150222-21.134222l164.977778-110.364445a21.930667 21.930667 0 0 1 16.014222-1.422222c11.434667 3.214222 11.776 9.102222 11.776 9.102222l-1.479111 86.926222 159.402666 2.730667s125.496889-14.848 126.236445-61.923555c0 0-4.693333 147.655111-131.669333 145.265777" fill="#ffffff" p-id="1692"></path></svg>